<svg width="49" height="48" viewBox="0 0 49 48" fill="none" xmlns="http://www.w3.org/2000/svg">
<g id="Control/Calendar Month">
<path id="Subtract" fill-rule="evenodd" clip-rule="evenodd" d="M15.5 6.125C15.9142 6.125 16.25 6.46079 16.25 6.875V11.875C16.25 12.2892 15.9142 12.625 15.5 12.625C15.0858 12.625 14.75 12.2892 14.75 11.875V6.875C14.75 6.46079 15.0858 6.125 15.5 6.125ZM12 11.875C12 13.808 13.567 15.375 15.5 15.375C17.433 15.375 19 13.808 19 11.875V9.875H30V11.875C30 13.808 31.567 15.375 33.5 15.375C35.433 15.375 37 13.808 37 11.875V9.875H41.5C42.0523 9.875 42.5 10.3227 42.5 10.875V40.875C42.5 41.4273 42.0523 41.875 41.5 41.875H7.5C6.94772 41.875 6.5 41.4273 6.5 40.875V10.875C6.5 10.3227 6.94772 9.875 7.5 9.875H12V11.875ZM34.25 6.875C34.25 6.46079 33.9142 6.125 33.5 6.125C33.0858 6.125 32.75 6.46079 32.75 6.875V11.875C32.75 12.2892 33.0858 12.625 33.5 12.625C33.9142 12.625 34.25 12.2892 34.25 11.875V6.875ZM17.8028 31.879C17.9228 32.695 18.2108 33.307 18.6668 33.715C19.1228 34.123 19.7408 34.327 20.5208 34.327C21.2168 34.327 21.7568 34.159 22.1408 33.823C22.5368 33.487 22.7348 33.019 22.7348 32.419C22.7348 31.783 22.5128 31.309 22.0688 30.997C21.6368 30.685 21.0008 30.529 20.1608 30.529H18.8108V28.729H19.9088C20.4368 28.729 20.8688 28.681 21.2048 28.585C21.5408 28.477 21.8228 28.309 22.0508 28.081C22.2068 27.925 22.3148 27.751 22.3748 27.559C22.4468 27.355 22.4828 27.121 22.4828 26.857C22.4828 26.329 22.2908 25.915 21.9068 25.615C21.5228 25.303 21.0248 25.147 20.4128 25.147C19.7408 25.147 19.2008 25.333 18.7928 25.705C18.3968 26.065 18.1388 26.617 18.0188 27.361L15.7328 27.001C15.9728 25.789 16.4948 24.871 17.2988 24.247C18.1028 23.623 19.1528 23.311 20.4488 23.311C21.3608 23.311 22.1528 23.449 22.8248 23.725C23.5088 23.989 24.0248 24.379 24.3728 24.895C24.7328 25.399 24.9128 25.981 24.9128 26.641C24.9128 27.337 24.7268 27.931 24.3548 28.423C23.9828 28.915 23.4608 29.269 22.7888 29.485V29.539C23.5808 29.683 24.1868 29.995 24.6068 30.475C25.0388 30.955 25.2548 31.579 25.2548 32.347C25.2548 33.115 25.0628 33.793 24.6788 34.381C24.2948 34.957 23.7368 35.401 23.0048 35.713C22.2848 36.013 21.4328 36.163 20.4488 36.163C18.9608 36.163 17.8028 35.851 16.9748 35.227C16.1468 34.591 15.6368 33.637 15.4448 32.365L17.8028 31.879ZM30.042 26.497C29.67 26.773 29.226 26.977 28.71 27.109C28.206 27.241 27.606 27.307 26.91 27.307V25.399C27.57 25.399 28.128 25.333 28.584 25.201C29.04 25.069 29.406 24.877 29.682 24.625C29.97 24.373 30.198 24.019 30.366 23.563H32.472V35.875H30.042V26.497ZM8.81982 18.0973C8.40561 18.0973 8.06982 18.4331 8.06982 18.8473C8.06982 19.2615 8.40561 19.5973 8.81982 19.5973H40.1798C40.594 19.5973 40.9298 19.2615 40.9298 18.8473C40.9298 18.4331 40.594 18.0973 40.1798 18.0973H8.81982Z" fill="#141414"/>
</g>
</svg>
