<svg width="49" height="48" viewBox="0 0 49 48" fill="none" xmlns="http://www.w3.org/2000/svg">
<g id="Misc/Clock">
<path id="Icon Shape" fill-rule="evenodd" clip-rule="evenodd" d="M4.49902 23.999C4.49902 12.9533 13.4533 3.99902 24.499 3.99902C35.5447 3.99902 44.499 12.9533 44.499 23.999C44.499 35.0447 35.5447 43.999 24.499 43.999C13.4533 43.999 4.49902 35.0447 4.49902 23.999ZM26.4996 11.9995C26.4996 11.4472 26.0519 10.9995 25.4996 10.9995C24.9473 10.9995 24.4996 11.4472 24.4996 11.9995V23.9995H16.4996C15.9473 23.9995 15.4996 24.4472 15.4996 24.9995C15.4996 25.5517 15.9473 25.9995 16.4996 25.9995H25.4996C26.0519 25.9995 26.4996 25.5517 26.4996 24.9995V11.9995Z" fill="#141414"/>
</g>
</svg>
