<svg width="72" height="72" viewBox="0 0 72 72" fill="none" xmlns="http://www.w3.org/2000/svg">
<g id="People/Construction worker">
<path id="Subtract" fill-rule="evenodd" clip-rule="evenodd" d="M32.1658 10.8755V11.0062C26.8994 12.4355 22.8761 16.628 21.8791 22.005C21.6113 22.1503 21.2884 22.3688 20.969 22.6911C20.2196 23.447 19.5815 24.6797 19.5815 26.5981C19.5815 27.0951 19.9442 27.5074 20.4193 27.585H51.6965C52.1717 27.5074 52.5343 27.0951 52.5343 26.5981C52.5343 24.6797 51.8962 23.447 51.1469 22.6911C50.8274 22.3688 50.5046 22.1503 50.2368 22.005C49.24 16.6231 45.2163 12.435 39.9502 11.0062V10.8755C39.9502 9.39025 38.7396 8.17969 37.2544 8.17969H34.8616C33.3763 8.17969 32.1658 9.39025 32.1658 10.8755ZM49.6833 29.585H22.3115C22.2737 29.998 22.2542 30.4166 22.2542 30.8404C22.2542 37.0177 26.3336 42.2455 31.9444 43.9758C23.6257 44.4871 18.6429 46.6254 15.7203 49.8263C12.3578 53.5088 11.9588 58.3562 11.9258 62.8125C11.9238 63.079 12.0283 63.3352 12.2161 63.5244C12.4038 63.7135 12.6593 63.8199 12.9258 63.8199H59.075C59.3415 63.8199 59.597 63.7135 59.7847 63.5244C59.9725 63.3353 60.0769 63.079 60.075 62.8126C60.042 58.3223 59.6449 53.4731 56.2825 49.7987C53.3597 46.6047 48.3758 44.4812 40.0549 43.9745C45.6635 42.2429 49.7409 37.0162 49.7409 30.8404C49.7409 30.4174 49.7213 29.9986 49.6833 29.585ZM26.8324 20.9765C26.2801 20.9765 25.8324 21.4242 25.8324 21.9765C25.8324 22.5288 26.2801 22.9765 26.8324 22.9765H44.8113C45.3636 22.9765 45.8113 22.5288 45.8113 21.9765C45.8113 21.4242 45.3636 20.9765 44.8113 20.9765H26.8324Z" fill="#141414"/>
</g>
</svg>
