<svg width="24" height="24" viewBox="0 0 24 24" fill="none" xmlns="http://www.w3.org/2000/svg">
    <path fill-rule="evenodd" clip-rule="evenodd" d="M4.5 2.00586C4.22386 2.00586 4 2.22972 4 2.50586V21.4988C4 21.7749 4.22386 21.9988 4.5 21.9988H19.5019C19.778 21.9988 20.0019 21.7749 20.0019 21.4988V9.50797C20.0019 9.37536 19.9492 9.24818 19.8554 9.15441L12.8533 2.15231C12.7596 2.05854 12.6324 2.00586 12.4998 2.00586H4.5ZM5 20.9988V3.00586H12.0017V9.50094C12.0017 9.77708 12.2255 10.0009 12.5017 10.0009L19.0019 10.0009V20.9988H5ZM18.2877 9.00094L13.0017 3.71489V9.00093L18.2877 9.00094Z" fill="currentcolor"/>
</svg>
