<svg xmlns="http://www.w3.org/2000/svg" viewBox="0 0 32 33" fill="none">
  <path fill-rule="evenodd" clip-rule="evenodd" d="M9.47224 14.0767C9.47224 12.4996 10.1058 11.2746 11.1208 10.4349C12.1453 9.58733 13.5876 9.11035 15.2195 9.11035C16.8515 9.11035 18.2938 9.58733 19.3183 10.4349C20.3333 11.2746 20.9668 12.4996 20.9668 14.0767C20.9668 14.2093 21.0195 14.3365 21.1133 14.4303C21.207 14.5241 21.3342 14.5767 21.4668 14.5767L23.8096 14.5767C26.1211 14.5767 27.995 16.4506 27.995 18.7622C27.995 21.0738 26.1211 22.9477 23.8096 22.9477H8.19133C5.87976 22.9477 4.00586 21.0738 4.00586 18.7622C4.00586 17.568 4.36437 16.5401 5.12207 15.8088C5.88076 15.0766 7.10705 14.5767 8.97224 14.5767C9.24839 14.5767 9.47224 14.3529 9.47224 14.0767ZM15.2195 8.11035C13.4012 8.11035 11.7199 8.64142 10.4833 9.66444C9.34764 10.604 8.61162 11.94 8.49007 13.5873C6.69356 13.6678 5.34561 14.2033 4.42761 15.0893C3.42826 16.0538 3.00586 17.3687 3.00586 18.7622C3.00586 21.6261 5.32747 23.9477 8.19133 23.9477H23.8096C26.6734 23.9477 28.995 21.6261 28.995 18.7622C28.995 15.8983 26.6734 13.5767 23.8096 13.5767L21.9482 13.5767C21.8243 11.9342 21.089 10.602 19.9558 9.66444C18.7192 8.64142 17.0379 8.11035 15.2195 8.11035ZM16.0002 13.5811C16.2763 13.5811 16.5002 13.8049 16.5002 14.0811L16.5002 19.7866L18.8418 17.445C19.037 17.2497 19.3536 17.2497 19.5489 17.445C19.7441 17.6402 19.7441 17.9568 19.5489 18.1521L16.3542 21.3468C16.1589 21.542 15.8423 21.542 15.6471 21.3468L12.4524 18.1521C12.2571 17.9568 12.2571 17.6402 12.4524 17.445C12.6477 17.2497 12.9642 17.2497 13.1595 17.445L15.5002 19.7856L15.5002 14.0811C15.5002 13.8049 15.724 13.5811 16.0002 13.5811Z" fill="currentColor"/>
</svg>
