<svg viewBox="0 0 24 24" fill="none" xmlns="http://www.w3.org/2000/svg">
  <path fill="currentColor" fill-rule="evenodd" clip-rule="evenodd" d="M6.9966 5.96928H5.00008L5.00126 5.13867H6.9966L6.9966 5.96928ZM15.9996 5.96928L7.9966 5.96928V4.63867C7.9966 4.36253 7.77274 4.13867 7.4966 4.13867H4.50197C4.22611 4.13867 4.00237 4.3621 4.00197 4.63796L4.00008 5.96928H2.50195C2.22581 5.96928 2.00195 6.19314 2.00195 6.46928L2.00195 19.4639C2.00195 19.7401 2.22581 19.9639 2.50195 19.9639L21.4995 19.9639C21.7757 19.9639 21.9995 19.7401 21.9995 19.4639L21.9995 6.46928C21.9995 6.19314 21.7757 5.96928 21.4995 5.96928L20.0003 5.96928L20.0003 4.64109C20.0003 4.50848 19.9476 4.3813 19.8539 4.28754C19.7601 4.19377 19.6329 4.14109 19.5003 4.14109L16.4996 4.14109C16.2235 4.14109 15.9996 4.36495 15.9996 4.64109V5.96928ZM16.9996 5.96928H19.0003L19.0003 5.14109H16.9996V5.96928ZM3.00195 18.9639L3.00195 6.96928L20.9995 6.96928L20.9995 18.9639L3.00195 18.9639ZM13.9591 8.54428C13.9955 8.31679 13.8718 8.0939 13.6595 8.0045C13.4471 7.9151 13.2012 7.98234 13.0639 8.16732L9.23335 13.3285C9.12075 13.4802 9.10328 13.6824 9.1882 13.8512C9.27312 14.02 9.44592 14.1265 9.63485 14.1265H11.3309L10.8066 17.3933C10.7701 17.6209 10.894 17.844 11.1065 17.9334C11.319 18.0228 11.5651 17.9553 11.7022 17.77L15.5327 12.5948C15.645 12.443 15.6623 12.2409 15.5773 12.0723C15.4923 11.9037 15.3196 11.7973 15.1308 11.7973H13.4389L13.9591 8.54428ZM11.9175 13.1265H10.6286L12.6489 10.4044L12.3588 12.2184C12.3357 12.3629 12.3771 12.5104 12.4721 12.6218C12.5671 12.7332 12.7061 12.7973 12.8526 12.7973L14.1386 12.7973L12.1191 15.5259L12.4112 13.7057C12.4344 13.5611 12.393 13.4136 12.298 13.3021C12.203 13.1907 12.0639 13.1265 11.9175 13.1265Z"/>
</svg>
