<svg viewBox="0 0 24 24" fill="none" xmlns="http://www.w3.org/2000/svg">
  <path fill="currentColor" fill-rule="evenodd" clip-rule="evenodd" d="M19.5639 3.68904C19.6538 3.45749 19.5601 3.19501 19.3439 3.07273C19.1277 2.95046 18.8545 3.00548 18.7024 3.20192L11.3323 12.7233C11.2156 12.8741 11.1948 13.0783 11.2788 13.2495C11.3628 13.4208 11.537 13.5294 11.7277 13.5294H15.3131L12.6754 20.3108C12.5853 20.5423 12.6789 20.8049 12.8952 20.9272C13.1114 21.0496 13.3847 20.9946 13.5367 20.7981L20.9068 11.2767C21.0236 11.1259 21.0443 10.9217 20.9603 10.7505C20.8763 10.5792 20.7022 10.4707 20.5114 10.4707H16.9291L19.5639 3.68904ZM16.0441 12.5294H12.747L17.3837 6.53923L15.7324 10.7896C15.6727 10.9434 15.6927 11.1168 15.7859 11.253C15.8791 11.3892 16.0335 11.4707 16.1985 11.4707H19.4921L14.8584 17.457L16.5101 13.2106C16.5699 13.0568 16.55 12.8833 16.4568 12.7471C16.3636 12.6108 16.2092 12.5294 16.0441 12.5294ZM9.51905 10.0076L3.51416 10.0077C3.23802 10.0077 3.01416 10.2315 3.01416 10.5077C3.01416 10.7838 3.23802 11.0077 3.51416 11.0077L9.51905 11.0076C9.7952 11.0076 10.0191 10.7838 10.0191 10.5076C10.0191 10.2315 9.79519 10.0076 9.51905 10.0076ZM6.51923 13.0062C6.24309 13.0062 6.01923 13.2301 6.01923 13.5062C6.01923 13.7823 6.24309 14.0062 6.51923 14.0062H9.51923C9.79537 14.0062 10.0192 13.7823 10.0192 13.5062C10.0192 13.2301 9.79537 13.0062 9.51923 13.0062H6.51923Z"/>
</svg>
