<svg xmlns="http://www.w3.org/2000/svg" viewBox="0 0 32 33" fill="none">
  <path fill-rule="evenodd" clip-rule="evenodd" d="M7.33099 2.86133C7.19832 2.86133 7.07108 2.91406 6.9773 3.00791L6.31116 3.67458L5.64501 4.34125C5.55132 4.435 5.4987 4.56212 5.4987 4.69466V12.9204C5.39497 13.0379 5.33203 13.1923 5.33203 13.3613V28.3613H4.5C4.22386 28.3613 4 28.5852 4 28.8613C4 29.1375 4.22386 29.3613 4.5 29.3613L5.9987 29.3613H17.9894L19.4876 29.3613C19.7637 29.3613 19.9876 29.1375 19.9876 28.8613C19.9876 28.5852 19.7637 28.3613 19.4876 28.3613H18.6566V15.2045C18.7423 15.2735 18.8224 15.3525 18.8954 15.4421C19.1573 15.7634 19.3609 16.2614 19.3609 17.0222V23.0895C19.3609 24.3451 19.9113 25.2222 20.6248 25.7725C21.3184 26.3074 22.1563 26.5283 22.7749 26.5283C23.4877 26.5283 24.4558 26.377 25.2339 25.8025C26.0437 25.2045 26.5698 24.2058 26.4709 22.6933C26.4692 21.9892 26.3667 21.4721 26.1853 20.5574L26.1804 20.5326L26.1803 20.5321L26.1782 20.5204L26.1696 20.4721L26.1369 20.2867C26.1088 20.126 26.0685 19.8945 26.0202 19.6117C25.9235 19.0458 25.7946 18.2749 25.6658 17.4542C25.4049 15.7917 25.1549 13.9879 25.1549 13.2302V13.2198L25.1545 13.2095C25.1378 12.8072 25.1124 12.3738 25.0606 11.9213L26.0251 11.6221L26.5297 11.4655L26.3455 10.9703C25.4565 8.57939 23.2047 6.00646 20.7217 4.90463L20.0189 4.59276V5.36165V5.93046V6.2279L20.2803 6.36985C22.0164 7.31268 22.9491 8.48506 23.4682 9.67374C23.9919 10.8732 24.1082 12.1191 24.1549 13.2409C24.1571 14.0998 24.4229 15.9843 24.6779 17.6093C24.8076 18.4358 24.9373 19.2113 25.0345 19.7801C25.0831 20.0646 25.1236 20.2975 25.152 20.4594L25.1849 20.6465L25.1936 20.6956L25.1959 20.7083L25.1965 20.7115L25.1966 20.7123L25.1967 20.7126L25.6889 20.6247L25.1966 20.7127L25.1984 20.7219C25.3878 21.6771 25.4709 22.1036 25.4709 22.7103V22.7274L25.472 22.7444C25.556 23.9715 25.143 24.6265 24.6399 24.998C24.102 25.3952 23.378 25.5283 22.7749 25.5283C22.3594 25.5283 21.7404 25.37 21.2355 24.9806C20.7505 24.6066 20.3609 24.0143 20.3609 23.0895V17.0222C20.3609 16.0765 20.1041 15.3422 19.6705 14.8103C19.3813 14.4555 19.0282 14.2088 18.6566 14.0503V13.3613C18.6566 13.1919 18.5934 13.0372 18.4894 12.9195V4.69466C18.4894 4.56212 18.4367 4.435 18.3431 4.34125L17.6769 3.67458L17.0108 3.00791C16.917 2.91406 16.7897 2.86133 16.6571 2.86133H7.33099ZM17.4894 12.6947V4.90165L16.9695 4.38141L16.4499 3.86133H7.53822L7.01854 4.38141L6.4987 4.90165V12.6947H17.4894ZM6.66596 28.028V14.028H17.3227V28.028H6.66596ZM25.2061 10.8292L24.9022 10.9235C24.8085 10.4735 24.6798 10.0139 24.5008 9.5549C24.7755 9.97488 25.0134 10.4035 25.2061 10.8292Z" fill="currentColor"/>
</svg>