<svg width="24" height="24" viewBox="0 0 24 24" fill="none" xmlns="http://www.w3.org/2000/svg">
  <path fill-rule="evenodd" clip-rule="evenodd" d="M5.5 9.40234C5.5 5.89644 8.35904 3 12 3C15.6344 3 18.4843 5.81015 18.4999 9.37278C18.3543 10.5625 17.9986 11.6726 17.4392 12.6385L17.4384 12.6399L12.8571 20.4157C12.6074 20.7797 12.2926 21 11.9247 21C11.5187 21 11.215 20.8124 10.993 20.4907L6.33533 12.4906L6.33146 12.484L6.3274 12.4775C5.78154 11.6028 5.5 10.5098 5.5 9.40234ZM12 2C7.813 2 4.5 5.33793 4.5 9.40234C4.5 10.6672 4.81926 11.9465 5.4749 13.0003L10.1378 21.0094L10.1463 21.0239L10.1557 21.0379C10.535 21.5989 11.1318 22 11.9247 22C12.7571 22 13.3426 21.483 13.6938 20.9636L13.7025 20.9508L13.7104 20.9374L18.3018 13.1444L18.3018 13.1444L18.3036 13.1413C18.9433 12.0374 19.3388 10.7835 19.4965 9.46158L19.5 9.43207V9.40234C19.5 5.26023 16.1835 2 12 2ZM9.5 9.5C9.5 8.11929 10.6193 7 12 7C13.3807 7 14.5 8.11929 14.5 9.5C14.5 10.8807 13.3807 12 12 12C10.6193 12 9.5 10.8807 9.5 9.5ZM12 6C10.067 6 8.5 7.567 8.5 9.5C8.5 11.433 10.067 13 12 13C13.933 13 15.5 11.433 15.5 9.5C15.5 7.567 13.933 6 12 6Z" fill="currentColor"/>
</svg>
