<svg xmlns="http://www.w3.org/2000/svg" width="56" height="57" viewBox="0 0 56 57" fill="none">
  <path fill-rule="evenodd" clip-rule="evenodd" d="M9.32835 15.8227C9.32835 15.1787 9.85041 14.6566 10.4944 14.6566L45.4756 14.6566C46.1196 14.6566 46.6417 15.1787 46.6417 15.8227C46.6417 16.4666 46.1196 16.9887 45.4756 16.9887L10.4944 16.9887C9.85041 16.9887 9.32835 16.4666 9.32835 15.8227ZM9.32835 28.6503C9.32835 28.0063 9.85041 27.4842 10.4944 27.4842L45.4757 27.4842C46.1197 27.4842 46.6418 28.0063 46.6418 28.6503C46.6418 29.2943 46.1197 29.8163 45.4757 29.8163L10.4944 29.8163C9.85041 29.8163 9.32835 29.2943 9.32835 28.6503ZM9.32835 41.4756C9.32835 40.8316 9.85041 40.3096 10.4944 40.3096L45.4761 40.3096C46.12 40.3096 46.6421 40.8316 46.6421 41.4756C46.6421 42.1196 46.12 42.6417 45.4761 42.6417L10.4944 42.6417C9.85041 42.6417 9.32835 42.1196 9.32835 41.4756Z" fill="currentColor"/>
</svg>
