<svg xmlns="http://www.w3.org/2000/svg" fill="currentColor" viewBox="0 0 24 24"><path d="M12 3.8h4.1c.96 0 1.44.25 1.8.37.49.24.85.36 1.2.72.37.36.61.72.73 1.2.12.37.24.85.36 1.81v8.2c0 .96-.24 1.44-.36 1.8-.24.49-.36.85-.72 1.2-.36.37-.72.61-1.2.73-.37.12-.85.24-1.81.36H7.9c-.96 0-1.44-.24-1.8-.36-.49-.24-.85-.36-1.2-.72a2.5 2.5 0 0 1-.73-1.2 9.05 9.05 0 0 1-.36-1.81V7.9c0-.96.24-1.44.36-1.8.24-.49.36-.85.72-1.2.36-.37.72-.61 1.2-.73.37-.12.85-.24 1.81-.36H12ZM12 2H7.9A6.05 6.05 0 0 0 3.7 3.69c-.6.6-.85 1.08-1.2 1.8-.25.6-.37 1.33-.49 2.41v8.2a6.05 6.05 0 0 0 1.69 4.21c.6.6 1.08.85 1.8 1.2.6.25 1.33.37 2.41.49h8.2a6.05 6.05 0 0 0 4.21-1.69c.6-.6.85-1.08 1.2-1.8.25-.6.37-1.33.49-2.41V7.9a6.05 6.05 0 0 0-1.69-4.21c-.6-.6-1.08-.85-1.8-1.2A9.33 9.33 0 0 0 16.1 2H12Z"/><path d="M12 6.82A5.14 5.14 0 0 0 6.82 12c0 2.9 2.29 5.18 5.18 5.18 2.9 0 5.18-2.29 5.18-5.18 0-2.9-2.29-5.18-5.18-5.18Zm0 8.55a3.37 3.37 0 1 1 0-6.74c1.8 0 3.37 1.44 3.37 3.37 0 1.8-1.56 3.37-3.37 3.37ZM17.3 7.9a1.2 1.2 0 1 0 0-2.4 1.2 1.2 0 0 0 0 2.4Z"/></svg>
