<svg xmlns="http://www.w3.org/2000/svg" width="16" height="16" viewBox="0 0 16 16" fill="none">
  <path d="M4.15001 15H1.175V5.6375H4.15001V15ZM2.6625 4.325C1.7 4.325 1 3.625 1 2.6625C1 1.7 1.7875 1 2.6625 1C3.625 1 4.325 1.7 4.325 2.6625C4.325 3.625 3.625 4.325 2.6625 4.325ZM15 15H12.025V9.925C12.025 8.4375 11.4125 8 10.5375 8C9.66249 8 8.78749 8.7 8.78749 10.0125V15H5.8125V5.6375H8.6125V6.95C8.875 6.3375 9.92499 5.375 11.4125 5.375C13.075 5.375 14.825 6.3375 14.825 9.225V15H15Z" fill="currentcolor"/>
</svg>