<svg width="24" height="24" viewBox="0 0 24 24" fill="none" xmlns="http://www.w3.org/2000/svg">
  <path fill-rule="evenodd" clip-rule="evenodd" d="M16.1449 3.99024C15.2106 4.06389 14.4108 4.46837 14.0176 4.86153L11.4987 7.38044C11.0354 7.84379 10.5767 8.67103 10.4699 9.60728C10.3655 10.522 10.5954 11.5373 11.4987 12.4406C11.7455 12.6874 11.9988 12.8844 12.2537 13.0394C12.4896 13.1829 12.5646 13.4905 12.4211 13.7264C12.2776 13.9623 11.97 14.0373 11.7341 13.8938C11.4084 13.6958 11.0926 13.4487 10.7916 13.1478C9.65224 12.0084 9.34077 10.6814 9.47632 9.49387C9.60942 8.32784 10.1722 7.29278 10.7916 6.67333L13.3105 4.15442C13.8927 3.57228 14.9256 3.08326 16.0663 2.99334C17.2281 2.90176 18.5375 3.2218 19.6275 4.31185C20.7109 5.3952 21.0701 6.69359 21.0064 7.86288C20.9437 9.01355 20.47 10.0666 19.8464 10.6903L17.3275 13.2092C17.0343 13.5023 16.6645 13.7702 16.2456 13.9869C16.0003 14.1138 15.6987 14.0178 15.5718 13.7726C15.4449 13.5273 15.5409 13.2256 15.7861 13.0987C16.1225 12.9247 16.4066 12.7158 16.6203 12.5021L19.1393 9.98316C19.5677 9.55469 19.9569 8.74434 20.0078 7.80848C20.0578 6.89126 19.7815 5.88003 18.9204 5.01896C18.0661 4.16458 17.0582 3.91825 16.1449 3.99024ZM8.42324 10.2059C8.54831 10.452 8.45011 10.753 8.20392 10.8781C7.91936 11.0226 7.69337 11.1863 7.53771 11.3419L5.01881 13.8609C4.55545 14.3242 4.09683 15.1514 3.98996 16.0877C3.88555 17.0024 4.11549 18.0177 5.01883 18.9211C5.92774 19.83 6.94924 20.0869 7.87097 20.0025C8.81213 19.9163 9.65003 19.4729 10.1404 18.9825L12.6593 16.4636C13.0878 16.0351 13.4769 15.2248 13.5279 14.2889C13.5779 13.3717 13.3016 12.3604 12.4405 11.4994C12.2356 11.2944 12.0233 11.1258 11.8075 10.9885C11.5745 10.8402 11.5059 10.5312 11.6541 10.2982C11.8024 10.0652 12.1115 9.99657 12.3444 10.1448C12.6229 10.3221 12.892 10.5367 13.1476 10.7923C14.231 11.8756 14.5901 13.174 14.5264 14.3433C14.4638 15.494 13.9901 16.5471 13.3664 17.1707L10.8475 19.6896C10.1937 20.3434 9.13861 20.8906 7.96216 20.9984C6.76628 21.1079 5.44554 20.762 4.31172 19.6282C3.17233 18.4888 2.86086 17.1618 2.99641 15.9743C3.12951 14.8083 3.69224 13.7732 4.3117 13.1537L6.8306 10.6348C7.0742 10.3912 7.39114 10.1693 7.751 9.98653C7.9972 9.86146 8.29817 9.95966 8.42324 10.2059Z" fill="currentColor"/>
</svg>