<svg width="226" height="19" viewBox="0 0 226 19" fill="none" xmlns="http://www.w3.org/2000/svg" aria-labelledby="logoTitle"><title id="logoTitle">Volvo logo</title><g clip-path="url(#clip0)" fill="#000"><path d="M20.573 3.203h3.332l-5.568 11.05-5.644-11.05h4.047V.445H0v2.758h3.828l7.782 15.154h9.032l7.633-15.154h3.833l.006-2.758h-11.54v2.758zM169.047 3.203h3.338l-5.574 11.05-5.643-11.05h4.053l-.006-2.758h-16.74v2.758h3.834l7.782 15.154h9.032l7.633-15.154h3.833V.445h-11.54v2.758zM106.757 15.575h-3.868v2.782h23.166v-8.29h-2.547a6.078 6.078 0 0 1-.438 2.19 5.728 5.728 0 0 1-1.19 1.84c-.378.39-.807.72-1.273.977a4.797 4.797 0 0 1-2.572.5h-3.557V3.21h3.84V.45h-15.43v2.76h3.89l-.023 12.365zM65.553 15.983c-2.842 0-4.14-3.333-4.14-6.665 0-3.45 1.494-6.492 4.146-6.492 2.65 0 4.097 3.042 4.097 6.492 0 3.258-1.2 6.665-4.12 6.665h.016zm0 2.85c7.95 0 11.863-4.21 11.863-9.478S73.26 0 65.513 0c-7.748 0-11.87 4.15-11.87 9.355 0 5.206 3.978 9.497 11.922 9.497l-.012-.02zM214.143 15.983c-2.848 0-4.14-3.333-4.14-6.665 0-3.45 1.488-6.492 4.14-6.492 2.65 0 4.104 3.042 4.104 6.492 0 3.258-1.2 6.665-4.127 6.665h.023zm0 2.85c7.943 0 11.863-4.21 11.863-9.478S221.844 0 214.102 0c-7.74 0-11.87 4.15-11.87 9.355 0 5.206 3.95 9.497 11.91 9.497v-.02z"/></g><defs><clipPath id="clip0"><path fill="#fff" d="M0 0h226v18.833H0z"/></clipPath></defs></svg>
