<svg xmlns="http://www.w3.org/2000/svg" viewBox="0 0 24 24" fill="currentColor">
  <path fill-rule="evenodd" clip-rule="evenodd" d="M8 4.5C8 4.22386 8.22386 4 8.5 4H21.5C21.7761 4 22 4.22386 22 4.5V15.5C22 15.7761 21.7761 16 21.5 16H8.5C8.22386 16 8 15.7761 8 15.5V4.5ZM9 5V15H21V5H9ZM14.5 7.5C14.5 7.22386 14.7239 7 15 7H18C18.2761 7 18.5 7.22386 18.5 7.5V10.5C18.5 10.7761 18.2761 11 18 11C17.7239 11 17.5 10.7761 17.5 10.5V8.70711L13.3536 12.8536C13.1583 13.0488 12.8417 13.0488 12.6464 12.8536C12.4512 12.6583 12.4512 12.3417 12.6464 12.1464L16.7929 8H15C14.7239 8 14.5 7.77614 14.5 7.5ZM2.5 8C2.22386 8 2 8.22386 2 8.5V19.5C2 19.7761 2.22386 20 2.5 20H15.5C15.7761 20 16 19.7761 16 19.5V18.0005C16 17.7243 15.7761 17.5005 15.5 17.5005C15.2239 17.5005 15 17.7243 15 18.0005V19H3V9H6.01642C6.29256 9 6.51642 8.77614 6.51642 8.5C6.51642 8.22386 6.29256 8 6.01642 8H2.5Z"/>
</svg>
