<svg width="235" height="50" viewBox="0 0 235 50" fill="none" xmlns="http://www.w3.org/2000/svg">
  <g fill="#09090A">
    <path d="M8.54978 13.4904L26.2505 29.2513V13.4904H32.6629V36.3972H24.6474L7.08029 20.8366V36.3972H0.667938V13.4904H8.54978Z" />
    <path d="M77.3489 13.4904L86.7671 31.1881L96.1184 13.4904H103.399L91.2423 36.3972H82.2918L70.0682 13.4904H77.3489Z"/>
    <path d="M61.7856 13.4904C65.6597 13.4904 68.9327 16.7628 68.9327 20.703V29.1178C68.9327 33.1248 65.7933 36.3304 61.7856 36.3304H44.3521C40.4779 36.3304 37.205 33.058 37.205 29.1178V20.703C37.205 16.696 40.3443 13.4904 44.3521 13.4904H61.7856ZM58.2455 19.0334C55.3065 18.9666 51.0984 18.9666 47.8254 19.0334C44.5524 19.1002 43.6173 19.6345 43.6173 22.7733C43.5505 25.9122 43.6173 23.7751 43.6173 27.181C43.6173 30.587 44.686 30.9209 47.8254 30.9209C51.0984 30.9209 55.4401 30.9209 58.2455 30.9209C61.1177 30.9209 62.4536 30.3199 62.4536 27.181C62.4536 24.0422 62.4536 26.1125 62.4536 22.7733C62.5204 19.5009 61.1177 19.1002 58.2455 19.0334Z"/>
    <path d="M143.009 13.4904H162.646C167.456 13.4904 168.725 16.0282 168.725 18.6327V20.5694C168.725 22.1723 167.856 23.9086 164.984 24.2426V24.3761C167.389 24.5097 169.593 25.4447 169.593 28.9174V31.6556C169.593 34.928 166.721 36.5308 162.914 36.5308H143.009V13.4904ZM165.652 18.4991C165.652 16.3621 163.314 16.0949 162.379 16.0949H146.148V23.3744H162.246C163.982 23.3744 165.652 22.7733 165.652 20.5027V18.4991ZM166.521 29.1846C166.521 26.3129 164.917 25.8454 162.112 25.8454H146.081V33.8594H162.58C165.519 33.8594 166.587 32.7909 166.587 30.7874V29.1846H166.521Z"/>
    <path d="M175.338 13.4904H178.41V30.7206C178.41 32.9245 179.145 34.1933 183.353 34.1933H194.174C198.382 34.1933 199.117 32.9245 199.117 30.7206V13.4904H202.189V30.7206C202.189 35.4622 199.851 36.7311 193.973 36.7311H183.353C177.475 36.7311 175.137 35.3287 175.137 30.7206V13.4904H175.338Z"/>
    <path d="M208.201 34.1933H225.768C230.31 34.1933 231.646 33.1915 231.646 29.9859C231.646 27.0474 230.51 26.3128 226.636 26.3128H220.692C211.207 26.3128 208.134 25.7117 208.134 19.6344C208.134 14.3585 211.207 13.2231 217.619 13.2231H232.915V15.7609H219.088C213.077 15.7609 210.939 16.0948 210.939 19.9015C210.939 22.6397 211.808 23.5746 216.617 23.5746H225.902C231.98 23.5746 234.518 25.3778 234.518 29.2513V30.7205C234.518 36.3971 229.909 36.7978 225.234 36.7978H208.201V34.1933Z"/>
    <path d="M136.262 24.1758C136.262 14.4921 131.987 13.6239 126.243 13.6239C120.499 13.5571 107.073 13.6239 107.073 13.6239V19.0334C107.073 19.0334 124.373 19.0334 126.644 19.0334C128.915 19.0334 129.917 19.8348 129.917 22.3726C129.917 22.3726 114.487 22.3058 110.88 22.3726C107.206 22.4394 104.134 25.645 104.201 29.5853C104.201 33.5923 107.34 36.5976 110.88 36.5976C114.42 36.5976 136.329 36.5976 136.396 36.5976V24.1758H136.262ZM129.85 30.9877C129.85 30.9877 114.153 30.9877 111.815 30.9877C109.477 30.9877 109.611 27.7153 111.815 27.7153C114.019 27.7153 129.85 27.7153 129.85 27.7153V30.9877Z"/>
  </g>
</svg>
