<svg width="16" height="16" viewBox="0 0 16 16" fill="none" xmlns="http://www.w3.org/2000/svg">
  <path fill-rule="evenodd" clip-rule="evenodd" d="M8.50065 2.33398C8.50065 2.05784 8.27679 1.83398 8.00065 1.83398C7.72451 1.83398 7.50065 2.05784 7.50065 2.33398L7.50065 7.50065H2.33398C2.05784 7.50065 1.83398 7.72451 1.83398 8.00065C1.83398 8.27679 2.05784 8.50065 2.33398 8.50065H7.50065L7.50065 13.6673C7.50065 13.9435 7.72451 14.1673 8.00065 14.1673C8.27679 14.1673 8.50065 13.9435 8.50065 13.6673L8.50065 8.50065H13.6673C13.9435 8.50065 14.1673 8.27679 14.1673 8.00065C14.1673 7.72451 13.9435 7.50065 13.6673 7.50065H8.50065L8.50065 2.33398Z" fill="currentColor"/>
</svg>
