<svg viewBox="0 0 24 24" fill="none" xmlns="http://www.w3.org/2000/svg">
  <path fill="currentColor" fill-rule="evenodd" clip-rule="evenodd" d="M17.4524 5.90565C17.1353 6.44715 17.0876 7.10657 17.3118 7.6063C17.5086 8.04477 18.3936 9.58057 19.0665 10.7272C19.7393 9.58057 20.6244 8.04477 20.8211 7.6063C21.0454 7.10657 20.9976 6.44716 20.6806 5.90565C20.3729 5.38018 19.8273 4.99219 19.0665 4.99219C18.3057 4.99219 17.76 5.38018 17.4524 5.90565ZM16.5894 5.4004C17.0587 4.59885 17.9168 3.99219 19.0665 3.99219C20.2162 3.99219 21.0742 4.59885 21.5435 5.4004C22.0035 6.18592 22.1059 7.18591 21.7335 8.0157C21.4602 8.62479 20.1225 10.9118 19.4964 11.9664C19.4063 12.1182 19.2429 12.2112 19.0665 12.2112C18.89 12.2112 18.7266 12.1182 18.6365 11.9664C18.0104 10.9118 16.6728 8.62479 16.3994 8.0157C16.0271 7.18591 16.1295 6.18592 16.5894 5.4004ZM3.31866 5.90565C3.00162 6.44716 2.95384 7.10657 3.17809 7.6063C3.37484 8.04477 4.25991 9.58057 4.93276 10.7272C5.60561 9.58057 6.49068 8.04477 6.68743 7.6063C6.91168 7.10657 6.8639 6.44716 6.54686 5.90566C6.2392 5.38018 5.69355 4.99219 4.93276 4.99219C4.17197 4.99219 3.62631 5.38018 3.31866 5.90565ZM2.45569 5.4004C2.92498 4.59885 3.78305 3.99219 4.93276 3.99219C6.08247 3.99219 6.94053 4.59885 7.40983 5.4004C7.86974 6.18593 7.97214 7.18592 7.59979 8.0157C7.32647 8.62479 5.9888 10.9118 5.3627 11.9665C5.27262 12.1182 5.10922 12.2112 4.93276 12.2112C4.75629 12.2112 4.5929 12.1182 4.50282 11.9665C3.87672 10.9118 2.53905 8.62479 2.26573 8.0157C1.89338 7.18592 1.99578 6.18593 2.45569 5.4004ZM4.99662 13.0217C5.27276 13.0217 5.49662 13.2455 5.49662 13.5217V19.5109C5.49662 19.7871 5.27276 20.0109 4.99662 20.0109C4.72048 20.0109 4.49662 19.7871 4.49662 19.5109V13.5217C4.49662 13.2455 4.72048 13.0217 4.99662 13.0217ZM19.0179 13.0217C19.294 13.0217 19.5179 13.2455 19.5179 13.5217V19.5109C19.5179 19.7871 19.294 20.0109 19.0179 20.0109C18.7417 20.0109 18.5179 19.7871 18.5179 19.5109V13.5217C18.5179 13.2455 18.7417 13.0217 19.0179 13.0217ZM9.14086 14.3291C9.33613 14.5244 9.33613 14.841 9.14086 15.0362L7.71837 16.4587H10.4839C10.7601 16.4587 10.9839 16.6826 10.9839 16.9587C10.9839 17.2349 10.7601 17.4587 10.4839 17.4587H7.71837L9.14086 18.8812C9.33613 19.0765 9.33613 19.3931 9.14086 19.5883C8.9456 19.7836 8.62902 19.7836 8.43376 19.5883L6.15771 17.3123C6.06395 17.2185 6.01127 17.0913 6.01127 16.9587C6.01127 16.8261 6.06395 16.6989 6.15771 16.6052L8.43376 14.3291C8.62902 14.1339 8.9456 14.1339 9.14086 14.3291ZM14.8468 14.3291C15.042 14.1339 15.3586 14.1339 15.5539 14.3291L17.8299 16.6052C18.0252 16.8004 18.0252 17.117 17.8299 17.3123L15.5539 19.5883C15.3586 19.7836 15.042 19.7836 14.8468 19.5883C14.6515 19.3931 14.6515 19.0765 14.8468 18.8812L16.2692 17.4587H13.5037C13.2276 17.4587 13.0037 17.2349 13.0037 16.9587C13.0037 16.6826 13.2276 16.4587 13.5037 16.4587H16.2692L14.8468 15.0362C14.6515 14.841 14.6515 14.5244 14.8468 14.3291ZM5.91064 6.88257C5.91064 7.43404 5.46359 7.8811 4.91211 7.8811C4.36063 7.8811 3.91357 7.43404 3.91357 6.88257C3.91357 6.33109 4.36063 5.88403 4.91211 5.88403C5.46359 5.88403 5.91064 6.33109 5.91064 6.88257ZM19.0742 7.8811C19.6257 7.8811 20.0728 7.43404 20.0728 6.88257C20.0728 6.33109 19.6257 5.88403 19.0742 5.88403C18.5227 5.88403 18.0757 6.33109 18.0757 6.88257C18.0757 7.43404 18.5227 7.8811 19.0742 7.8811Z"/>
</svg>
