<svg xmlns="http://www.w3.org/2000/svg" width="193" height="20" viewBox="0 0 193 20" fill="none">
  <g fill="#040404">
    <path d="M132.111 9.83331C132.111 10.75 131.347 11.3611 130.583 11.3611H121.111C120.347 11.3611 119.583 10.5972 119.583 9.83331V6.16664C119.583 5.24997 120.194 4.63886 121.111 4.63886H130.583C131.5 4.63886 132.111 5.40275 132.111 6.16664V9.83331ZM132.111 0.361084H119.583C117.139 0.361084 115 2.49997 115 5.09719V10.75C115 13.3472 116.986 15.4861 119.583 15.4861H132.111C134.556 15.4861 136.694 13.3472 136.694 10.75V5.09719C136.694 2.49997 134.708 0.361084 132.111 0.361084Z" />
    <path d="M192.764 0.513916H171.528C171.375 0.513916 171.222 0.666692 171.222 0.81947V4.18058C171.222 4.33336 171.375 4.48614 171.528 4.48614H179.472C179.625 4.48614 179.778 4.63892 179.778 4.7917V15.0278C179.778 15.1806 179.931 15.1806 179.931 15.1806H184.056C184.208 15.1806 184.208 15.1806 184.361 15.0278V4.7917C184.361 4.63892 184.514 4.48614 184.667 4.48614H192.611C192.764 4.48614 192.917 4.33336 192.917 4.18058V0.81947C193.069 0.666692 192.917 0.513916 192.764 0.513916Z" />
    <path d="M81.3889 0.513916H64.4305C61.9861 0.513916 59.8472 2.6528 59.8472 5.09725V10.5972C59.8472 13.0417 61.8333 15.0278 64.2778 15.1806H81.3889C81.5417 15.1806 81.6944 15.0278 81.6944 14.875V11.5139C81.6944 11.3611 81.5417 11.2084 81.3889 11.2084H65.5C64.125 11.2084 64.125 9.68058 65.5 9.68058H77.7222C77.875 9.68058 78.0278 9.52781 78.0278 9.37503V6.16669C78.0278 6.01391 77.875 5.86114 77.7222 5.86114H65.5C64.125 5.86114 64.125 4.33336 65.5 4.33336H81.3889C81.5417 4.33336 81.6944 4.18058 81.6944 4.02781V0.666694C81.6944 0.666694 81.5417 0.513916 81.3889 0.513916Z" />
    <path d="M17.6806 0.513916H0.875005C0.722228 0.513916 0.569443 0.666692 0.569443 0.81947V4.18058C0.569443 4.33336 0.722228 4.48614 0.875005 4.48614H16.9167C18.1389 4.48614 18.2917 6.01392 16.9167 6.01392H0.875005C0.722228 6.01392 0.569443 6.1667 0.569443 6.31947V14.875C0.569443 15.0278 0.722228 15.1806 0.875005 15.1806H5.15278C5.30555 15.1806 5.45834 15.0278 5.45834 14.875V10.1389C5.45834 9.68058 5.45833 9.68058 5.91667 9.68058H17.8333C23.6389 9.68058 23.9445 0.513916 17.6806 0.513916Z" />
    <path d="M46.5556 9.98614C46.5556 9.68058 46.5556 9.68058 46.7083 9.68058H47.0139C52.9722 9.68058 53.125 0.513916 46.8611 0.513916H30.0556C29.9028 0.513916 29.75 0.666692 29.75 0.81947V4.18058C29.75 4.33336 29.9028 4.48614 30.0556 4.48614H46.0972C47.3194 4.48614 47.4722 6.01392 46.0972 6.01392H30.0556C29.9028 6.01392 29.75 6.1667 29.75 6.31947V14.875C29.75 15.0278 29.9028 15.1806 30.0556 15.1806H34.3333C34.4861 15.1806 34.6389 15.0278 34.6389 14.875V10.1389C34.6389 9.68058 34.6389 9.68058 35.0972 9.68058H38.1528C39.2222 9.68058 39.375 9.83336 39.9861 10.4445L44.2639 14.7223C44.875 15.1806 45.0278 15.1806 45.4861 15.1806H50.8333C51.4444 15.1806 51.4445 15.0278 50.9861 14.5695L46.5556 9.98614Z" />
    <path d="M166.028 10.5972C166.028 8.00003 163.889 6.01392 161.292 6.01392H148.917C148.458 6.01392 148.153 5.70836 148.153 5.25003C148.153 4.79169 148.458 4.48614 148.917 4.48614H164.806C164.958 4.48614 165.111 4.33336 165.111 4.18058V0.81947C165.111 0.666692 164.958 0.513916 164.806 0.513916H149.222C146.625 0.513916 144.486 2.6528 144.486 5.09725C144.486 7.69447 146.625 9.68058 149.222 9.68058H161.597C162.056 9.68058 162.361 9.98614 162.361 10.2917C162.361 10.5972 162.056 11.0556 161.597 11.0556H144.639C144.486 11.0556 144.333 11.2084 144.333 11.3611V14.7223C144.333 14.875 144.486 15.0278 144.639 15.0278H161.75C164.042 14.875 166.028 12.8889 166.028 10.5972Z" />
    <path d="M109.653 0.666694C109.653 0.513917 109.5 0.513916 109.5 0.513916H105.222C105.069 0.513916 104.917 0.513917 104.917 0.666694L99.2639 10.5972C99.1111 10.75 98.9583 10.75 98.8055 10.75C98.6528 10.75 98.5 10.5972 98.3472 10.4445L92.6944 0.666694C92.6944 0.513917 92.5417 0.513916 92.3889 0.513916H88.1111C87.9583 0.513916 87.9583 0.666694 87.9583 0.666694C87.9583 0.666694 87.9583 0.666692 87.9583 0.81947L96.0556 14.875C96.2083 15.0278 96.3611 15.1806 96.5139 15.1806H101.25C101.403 15.1806 101.556 15.0278 101.708 14.875L109.653 0.666694C109.653 0.819472 109.653 0.819472 109.653 0.666694Z" />
  </g>
</svg>