<svg width="49" height="48" viewBox="0 0 49 48" fill="none" xmlns="http://www.w3.org/2000/svg">
<g id="Misc/Quotation">
<path id="Union" fill-rule="evenodd" clip-rule="evenodd" d="M22.4917 7.53482C22.4917 6.37758 23.4298 5.43945 24.5871 5.43945C25.7443 5.43945 26.6824 6.37758 26.6824 7.53482C26.6824 8.00598 26.5278 8.43886 26.2663 8.78843L26.2854 8.80273H22.8887L22.9079 8.78843C22.6463 8.43886 22.4917 8.00598 22.4917 7.53482ZM28.1824 7.53482C28.1824 7.98067 28.101 8.40816 27.9523 8.80273H30.5633C30.9775 8.80273 31.3133 9.13852 31.3133 9.55273V10.8223H37.6365C38.0507 10.8223 38.3865 11.1581 38.3865 11.5723V42.8978C38.3865 43.312 38.0507 43.6478 37.6365 43.6478H11.3633C10.9491 43.6478 10.6133 43.312 10.6133 42.8978V11.5723C10.6133 11.1581 10.9491 10.8223 11.3633 10.8223H17.687V9.55273C17.687 9.13852 18.0228 8.80273 18.437 8.80273H21.2219C21.0731 8.40816 20.9917 7.98067 20.9917 7.53482C20.9917 5.54915 22.6014 3.93945 24.5871 3.93945C26.5727 3.93945 28.1824 5.54915 28.1824 7.53482ZM19.187 10.3027V12.8445H29.8133V10.3027H19.187ZM16.416 20.4124C16.0018 20.4124 15.666 20.7481 15.666 21.1624C15.666 21.5766 16.0018 21.9124 16.416 21.9124H32.5842C32.9984 21.9124 33.3342 21.5766 33.3342 21.1624C33.3342 20.7481 32.9984 20.4124 32.5842 20.4124H16.416ZM15.666 27.2278C15.666 26.8136 16.0018 26.4778 16.416 26.4778H32.5819C32.9962 26.4778 33.3319 26.8136 33.3319 27.2278C33.3319 27.642 32.9962 27.9778 32.5819 27.9778H16.416C16.0018 27.9778 15.666 27.642 15.666 27.2278ZM16.416 34.0404L32.5838 34.0403C32.998 34.0403 33.3338 33.7045 33.3338 33.2903C33.3338 32.8761 32.998 32.5403 32.5838 32.5403L16.416 32.5404C16.0018 32.5404 15.666 32.8762 15.666 33.2904C15.666 33.7046 16.0018 34.0404 16.416 34.0404Z" fill="#141414"/>
</g>
</svg>
