<svg xmlns="http://www.w3.org/2000/svg" viewBox="0 0 32 33" fill="none">
  <path fill-rule="evenodd" clip-rule="evenodd" d="M16.0007 3.02832H16.1166C17.4053 3.02832 18.4499 4.07299 18.4499 5.36165C18.4499 5.65525 18.3957 5.93619 18.2967 6.19499H20.0007C20.2768 6.19499 20.5007 6.41884 20.5007 6.69499V7.52832H24.6673C24.9435 7.52832 25.1673 7.75218 25.1673 8.02832V28.695C25.1673 28.9711 24.9435 29.195 24.6673 29.195H7.33398C7.05784 29.195 6.83398 28.9711 6.83398 28.695V8.02832C6.83398 7.75218 7.05784 7.52832 7.33398 7.52832H11.5007V6.69499C11.5007 6.41884 11.7245 6.19499 12.0007 6.19499H13.8205C13.7215 5.93619 13.6673 5.65525 13.6673 5.36165C13.6673 4.07299 14.712 3.02832 16.0007 3.02832ZM19.4932 8.52832H19.5007V8.86165H12.5007V8.85666H12.499V7.19043H19.4932V7.19499H19.5007V7.52832H19.4932V8.52832ZM17.4499 5.36165C17.4499 5.67697 17.3405 5.96672 17.1575 6.19499H14.9598C14.7768 5.96672 14.6673 5.67697 14.6673 5.36165C14.6673 4.62527 15.2643 4.02832 16.0007 4.02832H16.1166C16.853 4.02832 17.4499 4.62527 17.4499 5.36165ZM11.5007 8.52832V9.36165C11.5007 9.6378 11.7245 9.86165 12.0007 9.86165H20.0007C20.2768 9.86165 20.5007 9.6378 20.5007 9.36165V8.52832H24.1673V28.195H7.83398V8.52832H11.5007ZM9.33398 12.1283C9.33398 12.0731 9.37876 12.0283 9.43398 12.0283H22.5673C22.6225 12.0283 22.6673 12.0731 22.6673 12.1283V13.2617C22.6673 13.3169 22.6225 13.3617 22.5673 13.3617H9.43398C9.37876 13.3617 9.33398 13.3169 9.33398 13.2617V12.1283ZM17.334 14.795C17.334 14.7398 17.3788 14.695 17.434 14.695H22.5673C22.6225 14.695 22.6673 14.7398 22.6673 14.795V15.9283C22.6673 15.9835 22.6225 16.0283 22.5673 16.0283H17.434C17.3788 16.0283 17.334 15.9835 17.334 15.9283V14.795ZM9.43398 14.695C9.37876 14.695 9.33398 14.7398 9.33398 14.795V15.9283C9.33398 15.9835 9.37876 16.0283 9.43398 16.0283H14.5673C14.6225 16.0283 14.6673 15.9835 14.6673 15.9283V14.795C14.6673 14.7398 14.6225 14.695 14.5673 14.695H9.43398ZM22.0007 19.3617C22.0007 20.0866 21.4221 20.6764 20.7015 20.6946L19.5695 23.7132C19.8345 23.9569 20.0007 24.3065 20.0007 24.695C20.0007 25.4314 19.4037 26.0283 18.6673 26.0283C17.9309 26.0283 17.334 25.4314 17.334 24.695C17.334 24.6026 17.3434 24.5123 17.3613 24.4252L13.4185 21.7967C13.2046 21.9429 12.9459 22.0283 12.6673 22.0283C12.4826 22.0283 12.3066 21.9907 12.1466 21.9228L10.3542 23.7152C10.1589 23.9105 9.84236 23.9105 9.6471 23.7152C9.45184 23.5199 9.45184 23.2034 9.6471 23.0081L11.4395 21.2157C11.3716 21.0557 11.334 20.8797 11.334 20.695C11.334 19.9586 11.9309 19.3617 12.6673 19.3617C13.4037 19.3617 14.0007 19.9586 14.0007 20.695C14.0007 20.7874 13.9912 20.8776 13.9733 20.9647L17.9161 23.5933C18.1213 23.4531 18.3676 23.3688 18.6332 23.3621L19.7652 20.3434C19.5001 20.0997 19.334 19.7501 19.334 19.3617C19.334 18.6253 19.9309 18.0283 20.6673 18.0283C21.4037 18.0283 22.0007 18.6253 22.0007 19.3617Z" fill="currentColor"/>
</svg>