<svg width="24" height="24" viewBox="0 0 24 24" fill="none"
  xmlns="http://www.w3.org/2000/svg">
  <path fill-rule="evenodd" clip-rule="evenodd" d="M4 9.5C4 6.46243 6.46243 4 9.5 4C12.5376 4 15 6.46243 15 9.5C15 12.5376 12.5376 15 9.5 15C6.46243 15 4 12.5376 4 9.5ZM9.5 3C5.91015 3 3 5.91015 3 9.5C3 13.0899 5.91015 16 9.5 16C11.1149 16 12.5923 15.4111 13.7291 14.4362L15.0339 15.7411C14.9448 16.0747 15.0311 16.4454 15.2928 16.7071L19.2928 20.7071C19.6834 21.0977 20.3165 21.0977 20.707 20.7071C21.0976 20.3166 21.0976 19.6835 20.707 19.2929L16.707 15.2929C16.4453 15.0312 16.0746 14.9449 15.741 15.034L14.4362 13.7291C15.411 12.5924 16 11.115 16 9.5C16 5.91015 13.0899 3 9.5 3Z" fill="currentColor"/>
</svg>
