<svg xmlns="http://www.w3.org/2000/svg" viewBox="0 0 32 33" fill="none">
  <path fill-rule="evenodd" clip-rule="evenodd" d="M15.8197 2.89473C15.9353 2.85019 16.0634 2.85019 16.1791 2.89473C17.9678 3.58358 20.7748 4.35885 23.1542 4.96548C24.3399 5.26775 25.4123 5.52642 26.1884 5.70953C26.5764 5.80107 26.8902 5.87368 27.1068 5.92338C27.2151 5.94823 27.2991 5.96734 27.3559 5.98023L27.4205 5.99481L27.4368 5.99849L27.4408 5.99939L27.4418 5.99961L27.442 5.99967L27.3327 6.48757C27.8304 6.53584 27.8304 6.53603 27.8303 6.53629L27.8302 6.53718L27.8299 6.54028L27.8288 6.55169L27.8243 6.59505C27.8204 6.63294 27.8144 6.68863 27.8062 6.76102C27.7899 6.90579 27.7648 7.11741 27.7296 7.38715C27.6591 7.92656 27.548 8.69881 27.385 9.63399C27.0592 11.503 26.5249 14.0293 25.6907 16.6512C24.8575 19.2698 23.7188 22.0045 22.1756 24.2777C20.6333 26.5495 18.6597 28.3994 16.1464 29.1726C16.0506 29.202 15.9482 29.202 15.8524 29.1726C13.339 28.3994 11.3655 26.5495 9.82318 24.2777C8.27991 22.0045 7.1412 19.2698 6.30808 16.6512C5.47389 14.0293 4.93957 11.503 4.61374 9.63399C4.45071 8.69881 4.3396 7.92656 4.26915 7.38715C4.23392 7.11741 4.20884 6.90579 4.19252 6.76102C4.18435 6.68863 4.17838 6.63294 4.17441 6.59505L4.16995 6.55169L4.16881 6.54028L4.16851 6.53718L4.16842 6.53629C4.16839 6.53603 4.16838 6.53584 4.66604 6.48757L4.55672 5.99967L4.55695 5.99961L4.55793 5.99939L4.56198 5.99849L4.57829 5.99481L4.64281 5.98023C4.69965 5.96734 4.78365 5.94823 4.89195 5.92338C5.10855 5.87368 5.42232 5.80107 5.81031 5.70953C6.5864 5.52642 7.65889 5.26775 8.8445 4.96548C11.2239 4.35885 14.0309 3.58358 15.8197 2.89473ZM4.66604 6.48757L4.16838 6.53584C4.14402 6.28476 4.31052 6.05486 4.55667 5.99968L4.66604 6.48757ZM27.3327 6.48757L27.4421 5.99968C27.6882 6.05486 27.8547 6.28476 27.8304 6.53584L27.3327 6.48757ZM5.21271 6.87573C5.22581 6.98448 5.24174 7.11228 5.26073 7.25765C5.32959 7.78488 5.43861 8.54291 5.59888 9.46225C5.91966 11.3023 6.44458 13.782 7.26101 16.348C8.07849 18.9174 9.18176 21.5525 10.6505 23.716C12.0877 25.8329 13.8487 27.461 15.9994 28.1699C18.15 27.461 19.9111 25.8329 21.3482 23.716C22.817 21.5525 23.9203 18.9174 24.7377 16.348C25.5542 13.782 26.0791 11.3023 26.3999 9.46225C26.5601 8.54291 26.6692 7.78488 26.738 7.25765C26.757 7.11228 26.7729 6.98448 26.786 6.87573C26.5751 6.82717 26.2945 6.76201 25.9588 6.68281C25.1785 6.49871 24.1 6.23859 22.9072 5.93448C20.6054 5.34764 17.8516 4.59046 15.9994 3.89618C14.1472 4.59046 11.3933 5.34764 9.09155 5.93448C7.89872 6.23859 6.82022 6.49871 6.03993 6.68281C5.70423 6.76201 5.42361 6.82717 5.21271 6.87573ZM15.9857 6.28808C16.1168 6.1942 16.2852 6.16936 16.4379 6.22137C18.844 7.04105 22.0648 7.86444 24.3851 8.37998C24.6463 8.43801 24.8155 8.69133 24.7691 8.9548C24.31 11.5615 23.4669 15.1791 22.1449 18.4286C21.4838 20.0537 20.6972 21.601 19.7692 22.8875C18.843 24.1717 17.7569 25.2224 16.4881 25.8144C16.3332 25.8867 16.1522 25.8749 16.0081 25.7831C15.864 25.6913 15.7767 25.5322 15.7767 25.3613V6.69466C15.7767 6.53336 15.8545 6.38196 15.9857 6.28808Z" fill="currentColor"/>
</svg>