<svg xmlns="http://www.w3.org/2000/svg" viewBox="0 0 32 33" fill="none">
  <path fill-rule="evenodd" clip-rule="evenodd" d="M7.03988 14.2254C7.03988 9.41536 11.0396 5.49316 15.9984 5.49316C20.9571 5.49316 24.9568 9.41536 24.9568 14.2254V16.2554C24.9568 16.5315 25.1807 16.7554 25.4568 16.7554C25.733 16.7554 25.9568 16.5315 25.9568 16.2554V14.2254C25.9568 8.84046 21.4865 4.49316 15.9984 4.49316C10.5103 4.49316 6.03988 8.84046 6.03988 14.2254V16.2554C6.03988 16.5315 6.26373 16.7554 6.53988 16.7554C6.81602 16.7554 7.03988 16.5315 7.03988 16.2554V14.2254ZM4.43945 13.9515C4.7156 13.9515 4.93945 14.1754 4.93945 14.4515V20.2299C4.93945 20.506 4.7156 20.7299 4.43945 20.7299C4.16331 20.7299 3.93945 20.506 3.93945 20.2299V14.4515C3.93945 14.1754 4.16331 13.9515 4.43945 13.9515ZM27.5592 13.9515C27.8354 13.9515 28.0592 14.1754 28.0592 14.4515V20.2299C28.0592 20.506 27.8354 20.7299 27.5592 20.7299C27.2831 20.7299 27.0592 20.506 27.0592 20.2299V14.4515C27.0592 14.1754 27.2831 13.9515 27.5592 13.9515ZM25.457 19.5036C25.7331 19.5036 25.957 19.7274 25.957 20.0036V20.8083C25.957 20.8179 25.9567 20.8275 25.9562 20.837C25.8037 23.4884 24.0593 24.8973 22.4415 25.6217C21.6335 25.9835 20.84 26.1846 20.2518 26.2956C19.9567 26.3513 19.7106 26.3848 19.5367 26.4045C19.4497 26.4143 19.3806 26.4208 19.3322 26.4248L19.2987 26.4274L19.2755 26.4291L19.2595 26.4302L19.2547 26.4305L19.253 26.4306L19.2525 26.4306C19.2522 26.4306 19.252 26.4306 19.2239 25.9314L19.252 26.4306C19.2426 26.4311 19.2333 26.4314 19.2239 26.4314H18.1396C18.1242 26.5249 18.0989 26.6167 18.0642 26.7053C17.9982 26.8735 17.8991 27.0268 17.773 27.1561C17.6468 27.2854 17.496 27.3882 17.3295 27.4583C17.1631 27.5284 16.9843 27.5645 16.8036 27.5645H14.43C14.2493 27.5645 14.0705 27.5284 13.9041 27.4583C13.7376 27.3882 13.5868 27.2854 13.4606 27.1561C13.3345 27.0268 13.2355 26.8735 13.1694 26.7053C13.1043 26.5393 13.0726 26.3621 13.0761 26.1838V25.8373C13.0733 25.6591 13.1057 25.4821 13.1714 25.3164C13.2378 25.149 13.337 24.9966 13.463 24.868C13.5891 24.7394 13.7396 24.6372 13.9056 24.5675C14.0716 24.4978 14.25 24.4619 14.4301 24.4619H16.8035C16.9841 24.4619 17.1631 24.498 17.3295 24.5681C17.496 24.6383 17.6468 24.741 17.773 24.8703C17.8991 24.9997 17.9982 25.1529 18.0642 25.3211C18.0784 25.3574 18.091 25.3942 18.1021 25.4314H19.2077C19.213 25.431 19.2199 25.4305 19.2284 25.4299C19.2346 25.4294 19.2417 25.4288 19.2496 25.4282C19.2886 25.4249 19.3477 25.4195 19.4242 25.4108C19.5771 25.3935 19.7987 25.3634 20.0664 25.3129C20.6039 25.2115 21.3171 25.0295 22.0329 24.709C23.4596 24.0702 24.8289 22.9212 24.957 20.7936V20.0036C24.957 19.7274 25.1809 19.5036 25.457 19.5036ZM14.2928 25.4895C14.3362 25.4713 14.3828 25.4619 14.4299 25.4619H15.1951H16.8038C16.851 25.4619 16.8978 25.4713 16.9413 25.4897C16.9848 25.508 17.0242 25.5349 17.0572 25.5687C17.0902 25.6025 17.116 25.6425 17.1333 25.6865C17.1506 25.7304 17.1588 25.7774 17.1577 25.8246L17.1575 25.8371V26.1893L17.1577 26.2018C17.1588 26.249 17.1506 26.296 17.1333 26.3399C17.116 26.3839 17.0902 26.424 17.0572 26.4578C17.0242 26.4916 16.9848 26.5184 16.9413 26.5368C16.8978 26.5551 16.8509 26.5645 16.8036 26.5645H16.0386H14.4298C14.3826 26.5645 14.3358 26.5551 14.2923 26.5368C14.2488 26.5184 14.2094 26.4916 14.1764 26.4578C14.1434 26.424 14.1176 26.3839 14.1003 26.3399C14.0831 26.296 14.0748 26.249 14.076 26.2018L14.0761 26.1893V25.8328L14.076 25.8228C14.0751 25.7758 14.0835 25.729 14.1009 25.6853C14.1182 25.6415 14.1442 25.6017 14.1771 25.568C14.2101 25.5344 14.2494 25.5077 14.2928 25.4895Z" fill="currentColor"/>
</svg>