<svg width="128" height="128" viewBox="0 0 128 128" fill="none" xmlns="http://www.w3.org/2000/svg">
<path d="M102.6 56.2075L95.7402 62.1375" stroke="black" stroke-width="3.79" stroke-miterlimit="10"/>
<path d="M106.56 39.5977H103.11C102.431 39.5977 101.88 40.1483 101.88 40.8277V55.6077C101.88 56.287 102.431 56.8377 103.11 56.8377H106.56C107.239 56.8377 107.79 56.287 107.79 55.6077V40.8277C107.79 40.1483 107.239 39.5977 106.56 39.5977Z" fill="black"/>
<path d="M106.56 40.5477C106.597 40.5477 106.635 40.5553 106.669 40.5699C106.704 40.5846 106.735 40.6062 106.761 40.6332C106.787 40.6603 106.808 40.6924 106.821 40.7275C106.835 40.7626 106.841 40.8001 106.84 40.8377V55.6077C106.841 55.6453 106.835 55.6828 106.821 55.7179C106.808 55.7531 106.787 55.7851 106.761 55.8122C106.735 55.8393 106.704 55.8608 106.669 55.8755C106.635 55.8902 106.597 55.8977 106.56 55.8977H103.11C103.072 55.8977 103.035 55.8902 103 55.8755C102.966 55.8608 102.934 55.8393 102.908 55.8122C102.882 55.7851 102.862 55.7531 102.848 55.7179C102.835 55.6828 102.828 55.6453 102.83 55.6077V40.8377C102.828 40.8001 102.835 40.7626 102.848 40.7275C102.862 40.6924 102.882 40.6603 102.908 40.6332C102.934 40.6062 102.966 40.5846 103 40.5699C103.035 40.5553 103.072 40.5477 103.11 40.5477H106.56ZM106.56 38.6577H103.11C102.823 38.6577 102.54 38.7141 102.275 38.8237C102.011 38.9332 101.771 39.0938 101.568 39.2962C101.366 39.4987 101.205 39.739 101.096 40.0035C100.986 40.268 100.93 40.5514 100.93 40.8377V55.6077C100.93 56.1868 101.159 56.7423 101.568 57.1528C101.976 57.5632 102.531 57.7951 103.11 57.7977H106.56C107.139 57.7951 107.693 57.5632 108.102 57.1528C108.51 56.7423 108.74 56.1868 108.74 55.6077V40.8377C108.727 40.2683 108.491 39.7265 108.084 39.3284C107.676 38.9304 107.129 38.7076 106.56 38.7077V38.6577Z" fill="black"/>
<path d="M26.1299 56.2075L32.9999 62.1375" stroke="black" stroke-width="3.79" stroke-miterlimit="10"/>
<path d="M25.6302 39.5977H22.1802C21.5009 39.5977 20.9502 40.1483 20.9502 40.8277V55.6077C20.9502 56.287 21.5009 56.8377 22.1802 56.8377H25.6302C26.3095 56.8377 26.8602 56.287 26.8602 55.6077V40.8277C26.8602 40.1483 26.3095 39.5977 25.6302 39.5977Z" fill="black"/>
<path d="M25.63 40.5477C25.6676 40.5477 25.7049 40.5553 25.7395 40.5699C25.7741 40.5846 25.8055 40.6062 25.8316 40.6332C25.8577 40.6603 25.8781 40.6924 25.8916 40.7275C25.9051 40.7626 25.9113 40.8001 25.91 40.8377V55.6077C25.9113 55.6453 25.9051 55.6828 25.8916 55.7179C25.8781 55.7531 25.8577 55.7851 25.8316 55.8122C25.8055 55.8393 25.7741 55.8608 25.7395 55.8755C25.7049 55.8902 25.6676 55.8977 25.63 55.8977H22.18C22.1424 55.8977 22.1051 55.8902 22.0705 55.8755C22.0358 55.8608 22.0045 55.8393 21.9784 55.8122C21.9522 55.7851 21.9318 55.7531 21.9184 55.7179C21.9049 55.6828 21.8987 55.6453 21.9 55.6077V40.8377C21.8987 40.8001 21.9049 40.7626 21.9184 40.7275C21.9318 40.6924 21.9522 40.6603 21.9784 40.6332C22.0045 40.6062 22.0358 40.5846 22.0705 40.5699C22.1051 40.5553 22.1424 40.5477 22.18 40.5477H25.63ZM25.63 38.6577H22.18C21.6018 38.6577 21.0473 38.8874 20.6385 39.2962C20.2297 39.705 20 40.2596 20 40.8377V55.6077C20 56.1868 20.2293 56.7423 20.6379 57.1528C21.0464 57.5632 21.6009 57.7951 22.18 57.7977H25.63C26.2091 57.7951 26.7636 57.5632 27.1721 57.1528C27.5806 56.7423 27.81 56.1868 27.81 55.6077V40.8377C27.81 40.2596 27.5803 39.705 27.1715 39.2962C26.7627 38.8874 26.2082 38.6577 25.63 38.6577Z" fill="black"/>
<path d="M64.3703 109.958H34.1603C33.5783 109.963 33.002 109.842 32.4718 109.602C31.9416 109.362 31.4701 109.009 31.0903 108.568C30.3533 107.742 29.9443 106.675 29.9403 105.568C29.8203 101.178 29.4303 85.2078 29.9403 81.1278C30.2403 78.7378 32.0403 78.2879 33.6903 77.6979C33.8366 77.6458 33.9618 77.5471 34.0467 77.4171C34.1316 77.287 34.1715 77.1327 34.1603 76.9779V75.3278L33.1603 57.5678C33.1401 57.2101 33.1602 56.8511 33.2203 56.4978L33.4403 55.2278C33.4885 54.974 33.5119 54.7162 33.5103 54.4578L33.6503 38.8478C33.6503 38.7178 33.6503 38.5978 33.6503 38.4678C33.8003 36.8078 34.9003 24.6478 35.1903 22.0478C35.3003 21.0478 35.9103 16.1679 36.3403 14.4479C36.5199 13.6081 36.9649 12.8483 37.6096 12.2811C38.2543 11.7138 39.0645 11.369 39.9203 11.2978C42.8403 10.7878 54.9203 11.1078 64.3803 11.0178C73.8803 11.1078 85.9203 10.7878 88.8403 11.2978C89.6961 11.369 90.5063 11.7138 91.151 12.2811C91.7958 12.8483 92.2408 13.6081 92.4203 14.4479C92.8503 16.1679 93.4203 21.0478 93.5703 22.0478C93.8603 24.6478 94.9603 36.8078 95.1103 38.4678C95.1103 38.5978 95.1103 38.7178 95.1103 38.8478L95.2503 54.4578C95.2487 54.7162 95.2722 54.974 95.3203 55.2278L95.5403 56.4978C95.6005 56.8511 95.6206 57.2101 95.6003 57.5678L94.6003 75.3278V76.9779C94.5891 77.1327 94.6291 77.287 94.7139 77.4171C94.7988 77.5471 94.924 77.6458 95.0703 77.6979C96.7203 78.2879 98.5203 78.6978 98.8203 81.1278C99.3203 85.2178 98.9303 101.248 98.8203 105.598C98.8089 106.578 98.475 107.527 97.8703 108.298C97.489 108.804 96.9948 109.214 96.4271 109.495C95.8594 109.776 95.2339 109.921 94.6003 109.918H64.3703V109.958Z" stroke="black" stroke-width="4" stroke-miterlimit="10"/>
<path d="M33.5996 41.0575C37.4896 38.5775 64.3296 38.6275 64.3296 38.6275H64.4096C64.4096 38.6275 91.2496 38.6275 95.1396 41.0575" stroke="black" stroke-width="4" stroke-miterlimit="10"/>
<path d="M33.5303 54.8877C34.4103 56.5277 36.7303 59.2477 39.9503 59.2477H88.7903C92.0103 59.2477 94.3303 56.5277 95.2103 54.8877" stroke="black" stroke-width="4" stroke-miterlimit="10"/>
<path d="M96.7503 109.958H89.0703C88.518 109.958 88.0703 110.405 88.0703 110.958V115.038C88.0703 115.59 88.518 116.038 89.0703 116.038H96.7503C97.3026 116.038 97.7503 115.59 97.7503 115.038V110.958C97.7503 110.405 97.3026 109.958 96.7503 109.958Z" fill="black" stroke="black" stroke-width="0.06" stroke-miterlimit="10" stroke-linecap="round"/>
<path d="M39.6497 109.958H31.9697C31.4174 109.958 30.9697 110.405 30.9697 110.958V115.038C30.9697 115.59 31.4174 116.038 31.9697 116.038H39.6497C40.202 116.038 40.6497 115.59 40.6497 115.038V110.958C40.6497 110.405 40.202 109.958 39.6497 109.958Z" fill="black" stroke="black" stroke-width="0.06" stroke-miterlimit="10" stroke-linecap="round"/>
<path d="M90.9701 84.1978L85.8301 95.7978L92.8201 94.2978" stroke="black" stroke-width="4" stroke-linecap="round" stroke-linejoin="round"/>
<path d="M37.7897 84.1577L42.9197 95.7677L35.9297 94.2577" stroke="black" stroke-width="4" stroke-linecap="round" stroke-linejoin="round"/>
<path d="M48.6504 100.588L82.2804 69.4976H83.4904C84.0106 69.4973 84.5104 69.6998 84.8838 70.062C85.2572 70.4242 85.4748 70.9176 85.4904 71.4376C85.4904 71.4376 82.1404 87.0676 80.4904 99.9576C80.4029 100.41 80.1622 100.818 79.8087 101.113C79.4553 101.408 79.0108 101.572 78.5504 101.578H50.3104C50.3104 101.578 48.9804 101.418 48.6504 100.588Z" fill="black"/>
<path d="M76.5897 69.4976L47.7997 96.1476C47.7997 96.1476 45.0597 80.5576 43.3997 72.0776C43.3997 72.0776 42.8497 69.6176 45.2597 69.4976H76.5897Z" fill="black"/>
</svg>
