<svg width="72" height="72" viewBox="0 0 72 72" fill="none" xmlns="http://www.w3.org/2000/svg">
<path fill-rule="evenodd" clip-rule="evenodd" d="M23.4094 11.1935C23.6983 11.143 24.2934 11.1044 25.1715 11.082C26.0258 11.0602 27.0826 11.0547 28.254 11.056C29.0178 11.0568 29.8305 11.0606 30.6637 11.0644C32.3698 11.0723 34.1621 11.0805 35.7973 11.065C37.4401 11.0805 39.2355 11.0722 40.9423 11.0644C41.7747 11.0606 42.586 11.0568 43.3483 11.056C44.5184 11.0547 45.5733 11.0602 46.4259 11.082C47.3023 11.1044 47.8962 11.143 48.1852 11.1935L48.2316 11.2016L48.2786 11.2054C48.4952 11.2231 48.703 11.3114 48.8687 11.4551C49.0366 11.6059 49.1511 11.8034 49.1964 12.0148L49.2 12.0318L49.2043 12.0487C49.2985 12.4259 49.42 13.2142 49.5325 14.0305C49.5869 14.4255 49.6396 14.83 49.6832 15.1646L49.6833 15.1654L49.6834 15.1665L49.6836 15.1677C49.7222 15.464 49.7536 15.7051 49.7726 15.8355C49.915 17.1218 50.4232 22.7236 50.5431 24.0482C49.9324 23.9206 49.1991 23.8148 48.4026 23.726C46.7945 23.5466 44.8567 23.4284 42.9995 23.35C41.1387 23.2714 39.3429 23.2322 38.0133 23.2126C37.3482 23.2028 36.799 23.1979 36.4156 23.1955C36.2239 23.1943 36.0737 23.1936 35.9711 23.1933L35.8538 23.1931L35.8235 23.193L35.8156 23.193H35.8135H35.813C35.8128 23.193 35.8127 23.193 35.8127 24.2204V23.193H35.7725H35.7716L35.7707 23.193L35.7628 23.193L35.7324 23.193L35.6151 23.1931C35.5125 23.1932 35.3622 23.1935 35.1705 23.1944C34.7871 23.1962 34.2378 23.2002 33.5726 23.209C32.2429 23.2266 30.4468 23.2634 28.5858 23.3403C26.7284 23.4171 24.7899 23.5345 23.181 23.7152C22.3902 23.804 21.6612 23.9101 21.0524 24.0384C21.1744 22.69 21.6847 17.0654 21.8239 15.8174L21.8241 15.8159C21.8826 15.2837 22.1897 12.8513 22.3903 12.0487L22.3945 12.0318L22.3982 12.0148C22.4452 11.7956 22.5585 11.6018 22.7234 11.4573L22.7234 11.4573L22.7293 11.4521C22.8868 11.3118 23.0907 11.2238 23.316 11.2054L23.3629 11.2016L23.4094 11.1935ZM35.8127 24.2204L35.8128 25.2478H35.8132L35.8149 25.2478L35.822 25.2478L35.8508 25.2478L35.965 25.2481C36.0653 25.2484 36.2133 25.249 36.4025 25.2502C36.7809 25.2526 37.3244 25.2575 37.9831 25.2672C39.3011 25.2866 41.0769 25.3254 42.9128 25.4029C44.7522 25.4805 46.6358 25.5964 48.1748 25.768C48.9455 25.854 49.6119 25.9521 50.1348 26.062C50.3063 26.0981 50.451 26.1332 50.5718 26.1661L50.6265 32.2622C50.4418 32.5564 50.1545 32.9143 49.7891 33.2103C49.3519 33.5645 48.8616 33.7852 48.3361 33.7852H23.2478C22.7223 33.7852 22.232 33.5645 21.7948 33.2103C21.4363 32.9199 21.1529 32.5699 20.968 32.2789L21.0229 26.1578C21.1419 26.1249 21.2842 26.0899 21.4525 26.054C21.9745 25.9427 22.64 25.8436 23.4103 25.7571C24.9485 25.5843 26.8315 25.4693 28.6707 25.3933C30.5062 25.3174 32.2819 25.281 33.5997 25.2636C34.2583 25.2549 34.8017 25.2509 35.1801 25.2491C35.3693 25.2482 35.5172 25.2479 35.6176 25.2478L35.7316 25.2477L35.7605 25.2477L35.7676 25.2478L35.7693 25.2478H35.7697L35.7716 24.2204L35.7697 25.2478H35.7716H35.8127V24.2204ZM50.7429 35.0602C50.1007 35.4998 49.2881 35.8399 48.3361 35.8399H23.2478C22.3013 35.8399 21.4926 35.5037 20.8521 35.0678L21.2995 43.0148L21.3012 43.0437V43.0726V43.8979C21.3106 44.1826 21.2342 44.4539 21.0923 44.6846L21.0777 44.7082L21.062 44.7309C20.9137 44.9451 20.6863 45.1511 20.3712 45.2599C20.2981 45.286 20.2302 45.31 20.1667 45.3324L20.1667 45.3324L20.1666 45.3324C19.7946 45.4638 19.5779 45.5403 19.3978 45.6662C19.2726 45.7538 19.1653 45.8625 19.1254 46.1799C19.0051 47.1434 18.9867 49.6359 19.012 52.2595C19.037 54.8454 19.1023 57.4531 19.133 58.5783L19.1334 58.5923V58.6063C19.1334 58.9203 19.2486 59.2225 19.4636 59.4637L19.469 59.4697L19.4743 59.4759C19.5713 59.5882 19.6917 59.6782 19.8295 59.7406C19.9632 59.8012 20.1161 59.834 20.2738 59.834H34.7648V59.8135H35.7921H38.8601C39.3973 60.5522 40.0004 61.24 40.6606 61.8682H36.8195V61.8888H35.7921H23.6075V63.4709C23.6075 63.7534 23.3764 63.9846 23.0939 63.9846H19.1488C18.8662 63.9846 18.6351 63.7534 18.6351 63.4709V61.4281C18.3702 61.2649 18.1305 61.0622 17.9246 60.8251C17.3861 60.2182 17.0825 59.4397 17.0787 58.6216C17.0477 57.4849 16.9824 54.8732 16.9574 52.2793C16.9326 49.7139 16.945 47.0572 17.0866 45.9245L17.0867 45.924C17.201 45.0136 17.633 44.3929 18.2205 43.9822C18.5477 43.7534 18.9273 43.5942 19.2464 43.4772V43.1015L18.8978 36.9097L15.6052 34.0677H14.1198C13.8219 34.0677 13.5394 33.9495 13.3288 33.7389C13.1181 33.5232 13 33.2407 13 32.9427V25.3556C13 25.0577 13.1181 24.7752 13.3288 24.5645C13.5394 24.3539 13.8219 24.2358 14.1198 24.2358H15.892C16.19 24.2358 16.4725 24.3539 16.6831 24.5645C16.8937 24.7752 17.0119 25.0577 17.0119 25.3556V32.71L18.7456 34.2065L18.7344 34.0073L18.7343 34.0065C18.7199 33.7462 18.7342 33.4839 18.7783 33.2263L18.7786 33.2246L18.8917 32.5722L18.8939 32.5591L18.8965 32.5461C18.906 32.4986 18.9125 32.4347 18.9125 32.352V32.3428H18.9126L18.9844 24.3288V24.1382V24.0919L18.9886 24.0458C19.0648 23.2023 19.6311 16.9417 19.7818 15.5904C19.8362 15.0961 20.1524 12.543 20.3929 11.5666C20.5329 10.9311 20.8689 10.3517 21.3657 9.91503C21.853 9.48214 22.4618 9.22375 23.1013 9.16176C23.5649 9.08639 24.2876 9.04914 25.1191 9.02793C26.002 9.00542 27.0814 8.99999 28.2563 9.00128C29.0355 9.00213 29.8565 9.00591 30.694 9.00977C32.3949 9.01761 34.1637 9.02576 35.7875 9.01031L35.7973 9.01022L35.807 9.01031C37.4385 9.02577 39.2104 9.0176 40.9121 9.00976C41.7487 9.0059 42.5684 9.00213 43.346 9.00128C44.5196 8.99999 45.5971 9.00542 46.4784 9.02794C47.3085 9.04915 48.0299 9.08641 48.4934 9.16178C49.1408 9.22478 49.7457 9.49219 50.2251 9.9117L50.2319 9.91764L50.2319 9.91767C50.7152 10.3481 51.0599 10.9236 51.2017 11.5666C51.3271 12.076 51.4608 12.9719 51.568 13.75C51.6295 14.1966 51.6827 14.6067 51.7248 14.9308C51.7616 15.2142 51.7898 15.432 51.8077 15.5511L51.8106 15.5704L51.8127 15.5897C51.9632 16.9393 52.5297 23.2022 52.6059 24.0458L52.6101 24.0919V24.1382V24.3289V24.3334L52.682 32.3428L52.6821 32.352C52.682 32.4347 52.6886 32.4986 52.698 32.5461L52.7006 32.5591L52.7029 32.5722L52.8159 33.2246L52.8162 33.2263C52.8604 33.4839 52.8747 33.7462 52.8602 34.0065L52.8602 34.0073L52.8496 34.1952L54.5725 32.7059V25.3556C54.5725 25.2118 54.6034 25.0628 54.6599 24.9293C54.7164 24.7906 54.7986 24.6673 54.9013 24.5645C55.0092 24.4618 55.1325 24.3796 55.266 24.3231C55.3996 24.2666 55.5434 24.2358 55.6924 24.2358H57.4646V24.2615C57.7522 24.2615 58.0348 24.3745 58.2454 24.58C58.456 24.7854 58.5793 25.0628 58.5844 25.3556V32.9427C58.5844 33.2407 58.4663 33.5283 58.2556 33.7389C58.045 33.9495 57.7625 34.0677 57.4646 34.0677H55.9742L53.4989 36.2074C52.6859 36.071 51.8508 36 50.999 36C50.8957 36 50.7926 36.001 50.6898 36.0031L50.7429 35.0602ZM35.999 51C35.999 50.022 36.0926 49.0658 36.2714 48.14L27.7171 56.0482V56.0533C27.8866 56.4797 28.5698 56.5619 28.5698 56.5619H37.064C36.3769 54.842 35.999 52.9651 35.999 51ZM37.6336 44.1837C38.4217 42.6415 39.4688 41.2538 40.7176 40.0778H25.9755C24.7376 40.1394 25.0201 41.4031 25.0201 41.4031C25.8728 45.7591 27.2803 53.7674 27.2803 53.7674L37.6336 44.1837ZM23.0783 47.1932C22.8489 46.6742 22.2423 46.4394 21.7233 46.6687C21.2043 46.898 20.9695 47.5046 21.1988 48.0236L23.0186 52.142L21.4 51.7924C20.8454 51.6726 20.2987 52.0251 20.1789 52.5797C20.0591 53.1343 20.4116 53.681 20.9662 53.8008L24.5568 54.5765C24.9345 54.658 25.3261 54.5208 25.5702 54.2212C25.8143 53.9217 25.8696 53.5105 25.7135 53.157L23.0783 47.1932ZM50.999 42.5015C51.5513 42.5015 51.999 42.9492 51.999 43.5015V50.0015H58.4985C59.0508 50.0015 59.4985 50.4493 59.4985 51.0015C59.4985 51.5538 59.0508 52.0015 58.4985 52.0015H51.999V58.5015C51.999 59.0537 51.5513 59.5015 50.999 59.5015C50.4467 59.5015 49.999 59.0537 49.999 58.5015V52.0015H43.4985C42.9463 52.0015 42.4985 51.5538 42.4985 51.0015C42.4985 50.4493 42.9463 50.0015 43.4985 50.0015H49.999V43.5015C49.999 42.9492 50.4467 42.5015 50.999 42.5015Z" fill="#141414"/>
</svg>
