<svg width="49" height="48" viewBox="0 0 49 48" fill="none" xmlns="http://www.w3.org/2000/svg">
<g id="Vehicles/Truck Front Add">
<path id="Icon Shape" fill-rule="evenodd" clip-rule="evenodd" d="M16.25 39L24.5001 39H25.8378C24.987 37.5291 24.5 35.8214 24.5 34C24.5 31.2794 25.5864 28.8126 27.3491 27.0097H22.5362L35.117 22.217C35.3487 22.4001 35.4974 22.6837 35.4974 23.002V24.0491C36.9447 24.1924 38.3013 24.6443 39.5005 25.3381V20.5012H41.9995C42.1375 20.5012 42.2694 20.4441 42.3639 20.3435C42.4584 20.2429 42.5071 20.1077 42.4985 19.97L41.9985 11.97C41.9821 11.7065 41.7635 11.5012 41.4995 11.5012H38.768C38.7306 11.1445 38.6976 10.8349 38.6706 10.5856C38.5971 9.9047 38.292 9.27725 37.8125 8.79774L35.8934 6.87868C35.3311 6.31635 34.5689 6 33.7728 6H24.5001H15.2277C14.4316 6 13.6694 6.31635 13.1071 6.87868L11.188 8.79774C10.7085 9.27725 10.4033 9.9047 10.3298 10.5856C10.3029 10.8349 10.2699 11.1445 10.2325 11.5012H7.5C7.23597 11.5012 7.01744 11.7065 7.00097 11.97L6.50097 19.97C6.49237 20.1077 6.54108 20.2429 6.63559 20.3435C6.73009 20.4441 6.86198 20.5012 7 20.5012H9.5V38C9.5 38.2652 9.60536 38.5196 9.79289 38.7071C9.98043 38.8947 10.2348 39 10.5 39H11.75V41.0018C11.75 41.416 12.0858 41.7518 12.5 41.7518H15.5C15.9142 41.7518 16.25 41.416 16.25 41.0018V39ZM15.2296 29.2747C15.6297 29.1672 16.0411 29.4043 16.1486 29.8043L17.2238 33.8043C17.2969 34.0764 17.2115 34.3664 17.0025 34.5553C16.7936 34.7443 16.4964 34.8002 16.2331 34.7001L11.2331 32.8001C10.8459 32.653 10.6513 32.2198 10.7984 31.8326C10.9456 31.4454 11.3787 31.2508 11.7659 31.3979L15.3943 32.7767L14.7 30.1937C14.5925 29.7937 14.8296 29.3823 15.2296 29.2747ZM30.0634 22.002H14.499C13.9467 22.002 13.499 22.4497 13.499 23.002V26.0097C13.499 26.5619 13.9467 27.0097 14.499 27.0097H16.9182L30.0634 22.002ZM34.5 28.251C34.9142 28.251 35.25 28.5868 35.25 29.001V33.251H39.4995C39.9137 33.251 40.2495 33.5868 40.2495 34.001C40.2495 34.4153 39.9137 34.751 39.4995 34.751H35.25V39.001C35.25 39.4152 34.9142 39.751 34.5 39.751C34.0858 39.751 33.75 39.4152 33.75 39.001V34.751H29.4995C29.0853 34.751 28.7495 34.4153 28.7495 34.001C28.7495 33.5868 29.0853 33.251 29.4995 33.251H33.75V29.001C33.75 28.5868 34.0858 28.251 34.5 28.251Z" fill="#141414"/>
</g>
</svg>
