<svg width="49" height="48" viewBox="0 0 49 48" fill="none" xmlns="http://www.w3.org/2000/svg">
<g id="Vehicles/Truck Front Settings">
<path id="Icon Shape" fill-rule="evenodd" clip-rule="evenodd" d="M24.5001 39L16.25 39V41.002C16.25 41.4162 15.9142 41.752 15.5 41.752H12.5C12.0858 41.752 11.75 41.4162 11.75 41.002V39H10.5C10.2348 39 9.98043 38.8947 9.79289 38.7071C9.60536 38.5196 9.5 38.2652 9.5 38V20.5005H7C6.86198 20.5005 6.73009 20.4434 6.63559 20.3428C6.54108 20.2422 6.49237 20.1071 6.50097 19.9693L7.00097 11.9693C7.01744 11.7058 7.23597 11.5005 7.5 11.5005H10.2326C10.2699 11.1441 10.3029 10.8348 10.3298 10.5856C10.4033 9.9047 10.7085 9.27725 11.188 8.79774L13.1071 6.87868C13.6694 6.31635 14.4316 6 15.2277 6H24.5001H33.7728C34.5689 6 35.3311 6.31635 35.8934 6.87868L37.8125 8.79774C38.292 9.27725 38.5971 9.9047 38.6706 10.5856C38.6975 10.8348 38.7306 11.1441 38.7679 11.5005H41.4995C41.7635 11.5005 41.9821 11.7058 41.9985 11.9693L42.4985 19.9693C42.5071 20.1071 42.4584 20.2422 42.3639 20.3428C42.2694 20.4434 42.1375 20.5005 41.9995 20.5005H39.5005V25.3381C38.3013 24.6443 36.9447 24.1924 35.4974 24.0491V23.002C35.4974 22.6837 35.3487 22.4001 35.117 22.217L22.5362 27.0097H27.3491C25.5864 28.8126 24.5 31.2794 24.5 34C24.5 35.8214 24.987 37.5291 25.8378 39H24.5001ZM11.2076 28.5941C11.338 28.5002 11.5056 28.4746 11.6581 28.5254L14.6581 29.5254C14.8203 29.5795 14.9436 29.7126 14.9851 29.8785L15.9851 33.8785C16.0277 34.0489 15.9777 34.2291 15.8536 34.3533C15.7294 34.4775 15.5491 34.5274 15.3787 34.4848L11.3787 33.4848C11.1561 33.4292 11 33.2292 11 32.9998V28.9998C11 28.839 11.0773 28.6881 11.2076 28.5941ZM14.499 22.002H30.0634L16.9182 27.0097H14.499C13.9467 27.0097 13.499 26.5619 13.499 26.0097V23.002C13.499 22.4497 13.9467 22.002 14.499 22.002Z" fill="#141414"/>
<g id="Group 22">
<path id="Vector" d="M31.9209 34.0001C31.9209 32.5494 33.1029 31.4211 34.4998 31.4211C35.9505 31.4211 37.0788 32.6032 37.0788 34.0001C37.0788 35.4507 35.8968 36.579 34.4998 36.579C33.0492 36.579 31.9209 35.4507 31.9209 34.0001Z" stroke="#141414" stroke-width="1.5" stroke-linejoin="round"/>
<path id="Vector_2" d="M35.081 41H33.9743C33.6423 41 33.4209 40.7255 33.3656 40.3961L33.1443 39.2431C32.6462 39.1333 32.2036 38.9137 31.8162 38.6941L30.8202 39.4078C30.5988 39.5725 30.2115 39.6275 29.9901 39.4078L29.2154 38.6392C28.9941 38.4196 28.9941 38.0353 29.2154 37.7608L29.8794 36.7725C29.6581 36.3333 29.4368 35.8941 29.3261 35.4549L28.0534 35.2353C27.7767 35.1804 27.5 34.9608 27.5 34.6314V33.5333C27.5 33.2039 27.7767 32.9843 28.1087 32.9294L29.3261 32.6549C29.4368 32.2157 29.6581 31.7765 29.8794 31.3373L29.1047 30.349C28.9387 30.0745 28.8834 29.7451 29.1047 29.5255L29.8794 28.7569C30.1008 28.5373 30.4881 28.5373 30.7648 28.7569L31.8162 29.4157C32.2589 29.1961 32.7016 28.9765 33.1443 28.8667L33.3656 27.6039C33.4209 27.3294 33.6423 27 33.9743 27H35.081C35.413 27 35.6344 27.2745 35.6897 27.6039L35.9111 28.8118C36.4091 28.9216 36.8518 29.1412 37.2391 29.3608L38.2352 28.6471C38.4012 28.4824 38.8439 28.4275 39.0652 28.6471L39.8399 29.4157C40.0613 29.6353 40.0613 30.0196 39.8399 30.2941L39.1759 31.2275C39.3972 31.6667 39.6186 32.1059 39.7292 32.5451L40.9466 32.7647C41.2233 32.8196 41.5 33.0392 41.5 33.3686V34.4667C41.5 34.7961 41.2233 35.0157 40.8913 35.0706L39.7292 35.2902C39.6186 35.7843 39.3972 36.2235 39.1759 36.6078L39.8953 37.5961C40.0613 37.8157 40.1166 38.2 39.8953 38.4196L39.1206 39.1882C38.8992 39.4078 38.5119 39.4078 38.2352 39.1882L37.2945 38.5294C36.8518 38.749 36.4091 38.9686 35.9664 39.0784L35.7451 40.2863C35.6344 40.7255 35.413 41 35.081 41Z" stroke="#141414" stroke-width="1.5" stroke-linecap="round" stroke-linejoin="round"/>
</g>
</g>
</svg>
