<svg width="72" height="72" viewBox="0 0 72 72" fill="none" xmlns="http://www.w3.org/2000/svg">
<path fill-rule="evenodd" clip-rule="evenodd" d="M25.1715 11.082C24.2934 11.1044 23.6983 11.143 23.4094 11.1935L23.3629 11.2016L23.316 11.2054C23.0907 11.2238 22.8868 11.3118 22.7293 11.4521L22.7234 11.4573L22.7234 11.4573C22.5585 11.6018 22.4452 11.7956 22.3982 12.0148L22.3945 12.0318L22.3903 12.0487C22.1897 12.8513 21.8826 15.2837 21.8241 15.8159L21.8239 15.8174C21.6847 17.0654 21.1744 22.69 21.0524 24.0384C21.6612 23.9101 22.3902 23.804 23.181 23.7152C24.7899 23.5345 26.7284 23.4171 28.5858 23.3403C30.4468 23.2634 32.2429 23.2266 33.5726 23.209C34.2378 23.2002 34.7871 23.1962 35.1705 23.1944C35.3622 23.1935 35.5125 23.1932 35.6151 23.1931L35.7324 23.193L35.7628 23.193L35.7707 23.193L35.7716 23.193H35.7725H35.8127V24.2204V25.2478H35.7716H35.7697L35.7716 24.2204L35.7697 25.2478H35.7693L35.7676 25.2478L35.7605 25.2477L35.7316 25.2477L35.6176 25.2478C35.5172 25.2479 35.3693 25.2482 35.1801 25.2491C34.8017 25.2509 34.2583 25.2549 33.5997 25.2636C32.2819 25.281 30.5062 25.3174 28.6707 25.3933C26.8315 25.4693 24.9485 25.5843 23.4103 25.7571C22.64 25.8436 21.9745 25.9427 21.4525 26.054C21.2842 26.0899 21.1419 26.1249 21.0229 26.1578L20.968 32.2789C21.1529 32.5699 21.4363 32.9199 21.7948 33.2103C22.232 33.5645 22.7223 33.7852 23.2478 33.7852H48.3361C48.8616 33.7852 49.3519 33.5645 49.7891 33.2103C50.1545 32.9143 50.4418 32.5564 50.6265 32.2622L50.5718 26.1661C50.451 26.1332 50.3063 26.0981 50.1348 26.062C49.6119 25.9521 48.9455 25.854 48.1748 25.768C46.6358 25.5964 44.7522 25.4805 42.9128 25.4029C41.0769 25.3254 39.3011 25.2866 37.9831 25.2672C37.3244 25.2575 36.7809 25.2526 36.4025 25.2502C36.2133 25.249 36.0653 25.2484 35.965 25.2481L35.8508 25.2478L35.822 25.2478L35.8149 25.2478L35.8132 25.2478H35.8128L35.8127 24.2204C35.8127 23.193 35.8128 23.193 35.813 23.193H35.8135H35.8156L35.8235 23.193L35.8538 23.1931L35.9711 23.1933C36.0737 23.1936 36.2239 23.1943 36.4156 23.1955C36.799 23.1979 37.3482 23.2028 38.0133 23.2126C39.3429 23.2322 41.1387 23.2714 42.9995 23.35C44.8567 23.4284 46.7945 23.5466 48.4026 23.726C49.1991 23.8148 49.9324 23.9206 50.5431 24.0482C50.4232 22.7236 49.915 17.1218 49.7726 15.8355C49.7536 15.7051 49.7222 15.464 49.6836 15.1677L49.6834 15.1665L49.6833 15.1654L49.6832 15.1646C49.6396 14.83 49.5869 14.4255 49.5325 14.0305C49.42 13.2142 49.2985 12.4259 49.2043 12.0487L49.2 12.0318L49.1964 12.0148C49.1511 11.8034 49.0366 11.6059 48.8687 11.4551C48.703 11.3114 48.4952 11.2231 48.2786 11.2054L48.2316 11.2016L48.1852 11.1935C47.8962 11.143 47.3023 11.1044 46.4259 11.082C45.5733 11.0602 44.5184 11.0547 43.3483 11.056C42.586 11.0568 41.7747 11.0606 40.9423 11.0644C39.2355 11.0722 37.4401 11.0805 35.7973 11.065C34.1621 11.0805 32.3698 11.0723 30.6637 11.0644C29.8305 11.0606 29.0178 11.0568 28.254 11.056C27.0826 11.0547 26.0258 11.0602 25.1715 11.082ZM48.3361 35.8399C49.2881 35.8399 50.1007 35.4998 50.7429 35.0602L50.6898 36.0032C50.7926 36.0011 50.8957 36 50.999 36C51.8507 36 52.6859 36.071 53.4988 36.2074L55.9742 34.0677H57.4646C57.7625 34.0677 58.045 33.9495 58.2556 33.7389C58.4663 33.5283 58.5844 33.2407 58.5844 32.9427V25.3556C58.5793 25.0628 58.456 24.7854 58.2454 24.58C58.0348 24.3745 57.7522 24.2615 57.4646 24.2615V24.2358H55.6924C55.5434 24.2358 55.3996 24.2666 55.266 24.3231C55.1325 24.3796 55.0092 24.4618 54.9013 24.5645C54.7986 24.6673 54.7164 24.7906 54.6599 24.9293C54.6034 25.0628 54.5725 25.2118 54.5725 25.3556V32.7059L52.8496 34.1952L52.8602 34.0073L52.8602 34.0065C52.8747 33.7462 52.8604 33.4839 52.8162 33.2263L52.8159 33.2246L52.7029 32.5722L52.7006 32.5591L52.698 32.5461C52.6886 32.4986 52.682 32.4347 52.6821 32.352L52.682 32.3428L52.6101 24.3334V24.3289V24.1382V24.0919L52.6059 24.0458C52.5297 23.2022 51.9632 16.9393 51.8127 15.5897L51.8106 15.5704L51.8077 15.5511C51.7898 15.432 51.7616 15.2142 51.7248 14.9308C51.6827 14.6067 51.6295 14.1966 51.568 13.75C51.4608 12.9719 51.3271 12.076 51.2017 11.5666C51.0599 10.9236 50.7152 10.3481 50.2319 9.91767L50.2319 9.91764L50.2251 9.9117C49.7457 9.49219 49.1408 9.22478 48.4934 9.16178C48.0299 9.08641 47.3085 9.04915 46.4784 9.02794C45.5971 9.00542 44.5196 8.99999 43.346 9.00128C42.5684 9.00213 41.7487 9.0059 40.9121 9.00976C39.2104 9.0176 37.4385 9.02577 35.807 9.01031L35.7973 9.01022L35.7875 9.01031C34.1637 9.02576 32.3949 9.01761 30.694 9.00977C29.8565 9.00591 29.0355 9.00213 28.2563 9.00128C27.0814 8.99999 26.002 9.00542 25.1191 9.02793C24.2876 9.04914 23.5649 9.08639 23.1013 9.16176C22.4618 9.22375 21.853 9.48214 21.3657 9.91503C20.8689 10.3517 20.5329 10.9311 20.3929 11.5666C20.1524 12.543 19.8362 15.0961 19.7818 15.5904C19.6311 16.9417 19.0648 23.2023 18.9886 24.0458L18.9844 24.0919V24.1382V24.3288L18.9126 32.3428H18.9125V32.352C18.9125 32.4347 18.906 32.4986 18.8965 32.5461L18.8939 32.5591L18.8917 32.5722L18.7786 33.2246L18.7783 33.2263C18.7342 33.4839 18.7199 33.7462 18.7343 34.0065L18.7344 34.0073L18.7456 34.2065L17.0119 32.71V25.3556C17.0119 25.0577 16.8937 24.7752 16.6831 24.5645C16.4725 24.3539 16.19 24.2358 15.892 24.2358H14.1198C13.8219 24.2358 13.5394 24.3539 13.3288 24.5645C13.1181 24.7752 13 25.0577 13 25.3556V32.9427C13 33.2407 13.1181 33.5232 13.3288 33.7389C13.5394 33.9495 13.8219 34.0677 14.1198 34.0677H15.6052L18.8978 36.9097L19.2464 43.1015V43.4772C18.9273 43.5942 18.5477 43.7534 18.2205 43.9822C17.633 44.3929 17.201 45.0136 17.0867 45.924L17.0866 45.9245C16.945 47.0572 16.9326 49.7139 16.9574 52.2793C16.9824 54.8732 17.0477 57.4849 17.0787 58.6216C17.0825 59.4397 17.3861 60.2182 17.9246 60.8251C18.1305 61.0622 18.3702 61.2649 18.6351 61.4281V63.4709C18.6351 63.7534 18.8662 63.9846 19.1488 63.9846H23.0939C23.3764 63.9846 23.6075 63.7534 23.6075 63.4709V61.8888H35.7921H36.8195V61.8682H40.6606C40.0003 61.24 39.3973 60.5522 38.86 59.8135H35.7921H34.7648V59.834H20.2738C20.1161 59.834 19.9632 59.8012 19.8295 59.7406C19.6917 59.6782 19.5713 59.5882 19.4743 59.4759L19.469 59.4697L19.4636 59.4637C19.2486 59.2225 19.1334 58.9203 19.1334 58.6063V58.5923L19.133 58.5783C19.1023 57.4531 19.037 54.8454 19.012 52.2595C18.9867 49.6359 19.0051 47.1434 19.1254 46.1799C19.1653 45.8625 19.2726 45.7538 19.3978 45.6662C19.5779 45.5403 19.7946 45.4638 20.1666 45.3324L20.1667 45.3324L20.1667 45.3324C20.2302 45.31 20.2981 45.286 20.3712 45.2599C20.6863 45.1511 20.9137 44.9451 21.062 44.7309L21.0777 44.7082L21.0923 44.6846C21.2342 44.4539 21.3106 44.1826 21.3012 43.8979V43.0726V43.0437L21.2995 43.0148L20.8521 35.0678C21.4926 35.5037 22.3013 35.8399 23.2478 35.8399H48.3361ZM36.2714 48.14C36.0926 49.0658 35.999 50.022 35.999 51C35.999 52.9651 36.3769 54.842 37.064 56.5619H28.5698C28.5698 56.5619 27.8866 56.4797 27.7171 56.0533V56.0482L36.2714 48.14ZM40.7177 40.0778C39.4689 41.2537 38.4218 42.6415 37.6337 44.1836L27.2803 53.7674C27.2803 53.7674 25.8728 45.7591 25.0201 41.4031C25.0201 41.4031 24.7376 40.1394 25.9755 40.0778H40.7177ZM21.7233 46.6687C22.2423 46.4394 22.8489 46.6742 23.0783 47.1932L25.7135 53.157C25.8696 53.5105 25.8143 53.9217 25.5702 54.2212C25.3261 54.5208 24.9345 54.658 24.5568 54.5765L20.9662 53.8008C20.4116 53.681 20.0591 53.1343 20.1789 52.5797C20.2987 52.0251 20.8454 51.6726 21.4 51.7924L23.0186 52.142L21.1988 48.0236C20.9695 47.5046 21.2043 46.898 21.7233 46.6687Z" fill="#141414"/>
<path d="M47.209 50.9999C47.209 48.8671 48.9468 47.2083 51.0006 47.2083C53.1335 47.2083 54.7923 48.9461 54.7923 50.9999C54.7923 53.1327 53.0545 54.7916 51.0006 54.7916C48.8678 54.7916 47.209 53.1327 47.209 50.9999Z" stroke="#141414" stroke-width="1.8" stroke-linejoin="round"/>
<path d="M51.8549 61.2916H50.2278C49.7396 61.2916 49.4142 60.888 49.3328 60.4037L49.0074 58.7086C48.2752 58.5471 47.6243 58.2243 47.0548 57.9014L45.5904 58.9507C45.265 59.1929 44.6955 59.2736 44.3701 58.9507L43.2311 57.8207C42.9056 57.4978 42.9056 56.9328 43.2311 56.5292L44.2073 55.0762C43.8819 54.4305 43.5565 53.7847 43.3938 53.139L41.5226 52.8161C41.1158 52.7354 40.709 52.4125 40.709 51.9282V50.3138C40.709 49.8295 41.1158 49.5066 41.6039 49.4259L43.3938 49.0223C43.5565 48.3766 43.8819 47.7308 44.2073 47.085L43.0683 45.6321C42.8243 45.2285 42.7429 44.7442 43.0683 44.4213L44.2073 43.2913C44.5328 42.9684 45.1023 42.9684 45.5091 43.2913L47.0548 44.2599C47.7057 43.937 48.3565 43.6141 49.0074 43.4527L49.3328 41.5962C49.4142 41.1926 49.7396 40.7083 50.2278 40.7083H51.8549C52.343 40.7083 52.6685 41.1118 52.7498 41.5962L53.0753 43.372C53.8075 43.5334 54.4583 43.8563 55.0278 44.1792L56.4923 43.1298C56.7363 42.8877 57.3872 42.8069 57.7126 43.1298L58.8516 44.2599C59.177 44.5828 59.177 45.1478 58.8516 45.5514L57.8753 46.9236C58.2008 47.5694 58.5262 48.2151 58.6889 48.8609L60.4787 49.1837C60.8855 49.2645 61.2923 49.5873 61.2923 50.0717V51.686C61.2923 52.1703 60.8855 52.4932 60.3974 52.5739L58.6889 52.8968C58.5262 53.6233 58.2008 54.269 57.8753 54.8341L58.933 56.287C59.177 56.6099 59.2584 57.1749 58.933 57.4978L57.794 58.6279C57.4685 58.9507 56.899 58.9507 56.4923 58.6279L55.1092 57.6592C54.4583 57.9821 53.8075 58.305 53.1566 58.4664L52.8312 60.2422C52.6685 60.888 52.343 61.2916 51.8549 61.2916Z" stroke="#141414" stroke-width="1.8" stroke-linecap="round" stroke-linejoin="round"/>
</svg>
