<svg xmlns="http://www.w3.org/2000/svg" width="16" height="16" viewBox="0 0 16 16" fill="none">
  <path d="M15 3.26923C14.475 3.52308 13.95 3.60769 13.3375 3.69231C13.95 3.35385 14.3875 2.84615 14.5625 2.16923C14.0375 2.50769 13.425 2.67692 12.725 2.84615C12.2 2.33846 11.4125 2 10.625 2C8.7875 2 7.3875 3.69231 7.825 5.38462C5.4625 5.3 3.3625 4.2 1.875 2.50769C1.0875 3.77692 1.525 5.38462 2.75 6.23077C2.3125 6.23077 1.875 6.06154 1.4375 5.89231C1.4375 7.16154 2.4 8.34615 3.7125 8.68462C3.275 8.76923 2.8375 8.85385 2.4 8.76923C2.75 9.86923 3.8 10.7154 5.1125 10.7154C4.0625 11.4769 2.4875 11.9 1 11.7308C2.3125 12.4923 3.8 13 5.375 13C10.7125 13 13.6875 8.68462 13.5125 4.70769C14.125 4.36923 14.65 3.86154 15 3.26923Z" fill="currentColor"/>
</svg>