<svg xmlns="http://www.w3.org/2000/svg" width="16" height="16" viewBox="0 0 16 16" fill="currentcolor">
  <path d="M14.65 4.51786C14.475 3.89286 14.0375 3.44643 13.425 3.26786C12.375 3 7.91249 3 7.91249 3C7.91249 3 3.53751 3 2.40001 3.26786C1.78751 3.44643 1.35 3.89286 1.175 4.51786C0.999997 5.67857 1 8 1 8C1 8 1 10.3214 1.2625 11.4821C1.4375 12.1071 1.875 12.5536 2.4875 12.7321C3.5375 13 8 13 8 13C8 13 12.375 13 13.5125 12.7321C14.125 12.5536 14.5625 12.1071 14.7375 11.4821C15 10.3214 15 8 15 8C15 8 15 5.67857 14.65 4.51786ZM6.59999 10.1429V5.85714L10.275 8L6.59999 10.1429Z" fill="#141414"/>
</svg>