<svg width="21" height="21" viewBox="0 0 21 21" fill="none" xmlns="http://www.w3.org/2000/svg">
<path d="M19.0336 9.54545C18.5945 5.565 15.435 2.40545 11.4545 1.96636V0H9.54545V1.96636C5.565 2.40545 2.40545 5.565 1.96636 9.54545H0V11.4545H1.96636C2.40545 15.435 5.565 18.5945 9.54545 19.0336V21H11.4545V19.0336C15.435 18.5945 18.5945 15.435 19.0336 11.4545H21V9.54545H19.0336ZM10.5 17.1818C6.80591 17.1818 3.81818 14.1941 3.81818 10.5C3.81818 6.80591 6.80591 3.81818 10.5 3.81818C14.1941 3.81818 17.1818 6.80591 17.1818 10.5C17.1818 14.1941 14.1941 17.1818 10.5 17.1818Z" fill="black"/>
</svg>
