<svg width="100" height="137" viewBox="0 0 100 137" fill="none" xmlns="http://www.w3.org/2000/svg">
<path d="M95.1409 70.0271C98.7711 62.5628 100.412 54.3198 99.9121 46.0666C99.4117 37.8133 96.7858 29.8185 92.2791 22.8273C87.7725 15.8362 81.5319 10.0764 74.1391 6.08488C66.7462 2.09334 58.4418 0 50 0C41.5582 0 33.2538 2.09334 25.8609 6.08488C18.4681 10.0764 12.2275 15.8362 7.72085 22.8273C3.21423 29.8185 0.588336 37.8133 0.087931 46.0666C-0.412474 54.3198 1.22891 62.5628 4.85907 70.0271C5.20887 70.7322 5.56879 71.4322 5.949 72.1224L50.0025 136.667L94.051 72.1224C94.4329 71.4306 94.7962 70.7322 95.1409 70.0271Z" fill="#5BA1F8"/>
</svg>
