<svg width="141" height="141" viewBox="0 0 141 141" fill="none" xmlns="http://www.w3.org/2000/svg">
<circle cx="70.5" cy="70.5" r="70.5" fill="#222942"/>
<g clip-path="url(#clip0_333_7734)">
<path d="M70.5 45.8459C75.1883 45.8459 78.9875 49.6451 78.9875 54.3334C78.9875 59.0217 75.1883 62.8209 70.5 62.8209C65.8117 62.8209 62.0125 59.0217 62.0125 54.3334C62.0125 49.6451 65.8117 45.8459 70.5 45.8459ZM70.5 82.2209C82.5037 82.2209 95.1542 88.1218 95.1542 90.7084V95.1543H45.8458V90.7084C45.8458 88.1218 58.4962 82.2209 70.5 82.2209ZM70.5 38.1667C61.5679 38.1667 54.3333 45.4013 54.3333 54.3334C54.3333 63.2655 61.5679 70.5001 70.5 70.5001C79.4321 70.5001 86.6667 63.2655 86.6667 54.3334C86.6667 45.4013 79.4321 38.1667 70.5 38.1667ZM70.5 74.5418C59.7087 74.5418 38.1667 79.9576 38.1667 90.7084V102.833H102.833V90.7084C102.833 79.9576 81.2912 74.5418 70.5 74.5418Z" fill="white"/>
</g>
<defs>
<clipPath id="clip0_333_7734">
<rect width="97" height="97" fill="white" transform="translate(22 22)"/>
</clipPath>
</defs>
</svg>
