<svg width="100" height="139" viewBox="0 0 100 139" fill="none" xmlns="http://www.w3.org/2000/svg">
<rect x="25" y="14" width="50" height="86" fill="white"/>
<path fill-rule="evenodd" clip-rule="evenodd" d="M99.9121 46.7552C100.412 55.1318 98.7711 63.498 95.1409 71.074C94.7962 71.7895 94.4329 72.4984 94.051 73.2005L50.0025 138.71L5.949 73.2005C5.56879 72.5 5.20887 71.7895 4.85907 71.074C1.22891 63.498 -0.412474 55.1318 0.087931 46.7552C0.588335 38.3785 3.21423 30.2642 7.72085 23.1686C12.2275 16.073 18.4681 10.2271 25.8609 6.17584C33.2538 2.12463 41.5582 0 50 0C58.4418 0 66.7462 2.12463 74.1391 6.17584C81.5319 10.2271 87.7725 16.073 92.2791 23.1686C96.7858 30.2642 99.4117 38.3785 99.9121 46.7552ZM50.0085 46.7553H74.063L50.0085 98.6078V66.2464H25.9409L50.0085 14.394V46.7553Z" fill="#5BA1F8"/>
</svg>
