<svg width="100" height="140" viewBox="0 0 100 140" fill="none" xmlns="http://www.w3.org/2000/svg">
<path d="M95.1409 71.7351C98.7711 64.0887 100.412 55.6447 99.9121 47.1901C99.4117 38.7356 96.7858 30.5457 92.2791 23.3841C87.7725 16.2225 81.5319 10.3222 74.1391 6.23329C66.7462 2.14439 58.4418 0 50 0C41.5582 0 33.2538 2.14439 25.8609 6.23329C18.4681 10.3222 12.2275 16.2225 7.72085 23.3841C3.21423 30.5457 0.588336 38.7356 0.087931 47.1901C-0.412474 55.6447 1.22891 64.0887 4.85907 71.7351C5.20887 72.4573 5.56879 73.1745 5.949 73.8814L50.0025 140L94.051 73.8814C94.4329 73.1728 94.7962 72.4573 95.1409 71.7351Z" fill="#6F8B94"/>
</svg>
